<svg width="50" height="51" viewBox="0 0 50 51" fill="none" xmlns="http://www.w3.org/2000/svg">
<path d="M6.14331 48.91C5.62618 48.8893 5.21026 48.4774 5.1845 47.9605L4.78999 40.0434L3.60001 14.3834L3.04549 1.3431C3.02088 0.764517 3.49136 0.286067 4.07028 0.300947L36.07 1.12344L46.9663 1.44178C47.5501 1.45883 47.9951 1.97053 47.931 2.5511L44.53 33.3534L42.7427 49.354C42.6847 49.8729 42.2372 50.2599 41.7153 50.2424L27.74 49.7734L6.14331 48.91Z" fill="black"/>
<g clip-path="url(#clip0_1366_15583)">
<path d="M19.4575 16.1484C18.1802 16.1484 16.9317 16.5271 15.8696 17.2366C14.8076 17.9462 13.9799 18.9548 13.4911 20.1348C13.0023 21.3148 12.8744 22.6133 13.1236 23.866C13.3728 25.1187 13.9879 26.2693 14.8911 27.1724L24.4335 36.7148C24.5078 36.7893 24.5961 36.8484 24.6933 36.8888C24.7905 36.9291 24.8947 36.9499 24.9999 36.9499C25.1051 36.9499 25.2093 36.9291 25.3065 36.8888C25.4037 36.8484 25.492 36.7893 25.5663 36.7148L35.1087 27.1708C36.287 25.9533 36.9395 24.3214 36.9257 22.6271C36.9118 20.9329 36.2326 19.3119 35.0345 18.1138C33.8364 16.9157 32.2155 16.2365 30.5212 16.2227C28.8269 16.2088 27.195 16.8613 25.9775 18.0396L24.9999 19.0156L24.0239 18.0396C22.812 16.8288 21.1706 16.1486 19.4575 16.1484Z" fill="white"/>
</g>
<path d="M25.0011 22.5686L24.9954 22.5742L25.561 23.1332L25.5667 23.1276L25.0011 22.5686Z" fill="white"/>
<path d="M29.8542 20.7441L30.4541 19.3056C30.4725 19.2627 30.5337 19.2627 30.5459 19.3056L31.1458 20.7441C31.4029 21.3685 31.9049 21.8644 32.5293 22.1276L33.9679 22.7275C34.0107 22.7459 34.0107 22.8071 33.9679 22.8193L32.5293 23.4193C31.9049 23.6764 31.4091 24.1783 31.1458 24.8027L30.5459 26.2413C30.5275 26.2842 30.4663 26.2842 30.4541 26.2413L29.8542 24.8027C29.5971 24.1783 29.0951 23.6825 28.4707 23.4193L27.0321 22.8193C26.9893 22.801 26.9893 22.7398 27.0321 22.7275L28.4707 22.1276C29.0951 21.8705 29.5909 21.3685 29.8542 20.7441Z" fill="#030000"/>
<defs>
<clipPath id="clip0_1366_15583">
<rect width="24" height="24" fill="white" transform="translate(13 14.5488)"/>
</clipPath>
</defs>
</svg>
