<svg width="73" height="69" viewBox="0 0 73 69" fill="none" xmlns="http://www.w3.org/2000/svg">
<mask id="path-1-outside-1_2536_2484" maskUnits="userSpaceOnUse" x="-3.15978" y="-4.30313" width="78.4027" height="77.5019" fill="black">
<rect fill="white" x="-3.15978" y="-4.30313" width="78.4027" height="77.5019"/>
<path d="M54.3398 4.03877L51.0733 23.6937L70.564 27.5939L71.1572 34.8949L52.5441 41.8944L58.915 60.7733L52.8837 64.9306L37.548 52.2841L24.4345 67.2496L17.813 64.115L21.0728 44.4575L1.59004 40.5571L0.996657 33.2581L19.6079 26.2574L13.2378 7.37952L19.2701 3.22236L34.605 15.8668L47.7194 0.903305L54.3398 4.03877ZM35.0344 21.1579L16.848 6.16138L24.3948 28.5277L2.3378 36.823L25.4344 41.4461L21.5706 64.7385L37.1194 46.9951L55.3058 61.9915L47.7581 39.6251L69.816 31.3299L46.7117 26.7061L50.5833 3.41346L35.0344 21.1579Z"/>
</mask>
<path d="M54.3398 4.03877L51.0733 23.6937L70.564 27.5939L71.1572 34.8949L52.5441 41.8944L58.915 60.7733L52.8837 64.9306L37.548 52.2841L24.4345 67.2496L17.813 64.115L21.0728 44.4575L1.59004 40.5571L0.996657 33.2581L19.6079 26.2574L13.2378 7.37952L19.2701 3.22236L34.605 15.8668L47.7194 0.903305L54.3398 4.03877ZM35.0344 21.1579L16.848 6.16138L24.3948 28.5277L2.3378 36.823L25.4344 41.4461L21.5706 64.7385L37.1194 46.9951L55.3058 61.9915L47.7581 39.6251L69.816 31.3299L46.7117 26.7061L50.5833 3.41346L35.0344 21.1579Z" fill="#E7FF7E"/>
<path d="M54.3398 4.03877L55.3263 4.20271L54.7678 3.135L54.3398 4.03877ZM51.0733 23.6937L50.0869 23.5297L50.8771 24.6742L51.0733 23.6937ZM70.564 27.5939L71.5607 27.5129L70.7602 26.6133L70.564 27.5939ZM71.1572 34.8949L71.5091 35.8309L72.1539 34.8139L71.1572 34.8949ZM52.5441 41.8944L52.1921 40.9584L51.5966 42.2141L52.5441 41.8944ZM58.915 60.7733L59.4825 61.5967L59.8625 60.4536L58.915 60.7733ZM52.8837 64.9306L52.2475 65.7021L53.4512 65.7539L52.8837 64.9306ZM37.548 52.2841L38.1842 51.5125L36.7959 51.625L37.548 52.2841ZM24.4345 67.2496L24.0066 68.1535L25.1866 67.9087L24.4345 67.2496ZM17.813 64.115L16.8264 63.9514L17.3851 65.0189L17.813 64.115ZM21.0728 44.4575L22.0593 44.6211L21.2691 43.477L21.0728 44.4575ZM1.59004 40.5571L0.593333 40.6381L1.39374 41.5376L1.59004 40.5571ZM0.996657 33.2581L0.644587 32.3221L-5.44182e-05 33.3391L0.996657 33.2581ZM19.6079 26.2574L19.9599 27.1934L20.5554 25.9377L19.6079 26.2574ZM13.2378 7.37952L12.6704 6.55611L12.2903 7.69924L13.2378 7.37952ZM19.2701 3.22236L19.9063 2.45082L18.7027 2.39895L19.2701 3.22236ZM34.605 15.8668L33.9689 16.6384L35.3571 16.5259L34.605 15.8668ZM47.7194 0.903305L48.1474 -0.000460053L46.9673 0.244196L47.7194 0.903305ZM35.0344 21.1579L34.3982 21.9294L35.7865 21.8169L35.0344 21.1579ZM16.848 6.16138L17.4842 5.38985L15.9005 6.48109L16.848 6.16138ZM24.3948 28.5277L24.7468 29.4637L25.3423 28.208L24.3948 28.5277ZM2.3378 36.823L1.98578 35.887L2.14153 37.8036L2.3378 36.823ZM25.4344 41.4461L26.4209 41.6097L25.6306 40.4655L25.4344 41.4461ZM21.5706 64.7385L20.5841 64.5748L22.3227 65.3975L21.5706 64.7385ZM37.1194 46.9951L37.7556 46.2235L36.3673 46.336L37.1194 46.9951ZM55.3058 61.9915L54.6696 62.7631L56.2533 61.6718L55.3058 61.9915ZM47.7581 39.6251L47.4061 38.6891L46.8106 39.9448L47.7581 39.6251ZM69.816 31.3299L70.168 32.2659L70.0123 30.3493L69.816 31.3299ZM46.7117 26.7061L45.7252 26.5422L46.5154 27.6867L46.7117 26.7061ZM50.5833 3.41346L51.5698 3.57743L49.8312 2.75442L50.5833 3.41346ZM54.3398 4.03877L53.3533 3.87483L50.0869 23.5297L51.0733 23.6937L52.0598 23.8576L55.3263 4.20271L54.3398 4.03877ZM51.0733 23.6937L50.8771 24.6742L70.3677 28.5745L70.564 27.5939L70.7602 26.6133L51.2696 22.7131L51.0733 23.6937ZM70.564 27.5939L69.5672 27.6749L70.1604 34.9758L71.1572 34.8949L72.1539 34.8139L71.5607 27.5129L70.564 27.5939ZM71.1572 34.8949L70.8052 33.9589L52.1921 40.9584L52.5441 41.8944L52.8961 42.8304L71.5091 35.8309L71.1572 34.8949ZM52.5441 41.8944L51.5966 42.2141L57.9675 61.0931L58.915 60.7733L59.8625 60.4536L53.4916 41.5746L52.5441 41.8944ZM58.915 60.7733L58.3475 59.95L52.3162 64.1072L52.8837 64.9306L53.4512 65.7539L59.4825 61.5967L58.915 60.7733ZM52.8837 64.9306L53.5199 64.1591L38.1842 51.5125L37.548 52.2841L36.9118 53.0556L52.2475 65.7021L52.8837 64.9306ZM37.548 52.2841L36.7959 51.625L23.6823 66.5906L24.4345 67.2496L25.1866 67.9087L38.3001 52.9431L37.548 52.2841ZM24.4345 67.2496L24.8623 66.3458L18.2408 63.2112L17.813 64.115L17.3851 65.0189L24.0066 68.1535L24.4345 67.2496ZM17.813 64.115L18.7995 64.2786L22.0593 44.6211L21.0728 44.4575L20.0863 44.2939L16.8264 63.9514L17.813 64.115ZM21.0728 44.4575L21.2691 43.477L1.78635 39.5765L1.59004 40.5571L1.39374 41.5376L20.8765 45.4381L21.0728 44.4575ZM1.59004 40.5571L2.58676 40.476L1.99337 33.177L0.996657 33.2581L-5.44182e-05 33.3391L0.593333 40.6381L1.59004 40.5571ZM0.996657 33.2581L1.34873 34.194L19.9599 27.1934L19.6079 26.2574L19.2558 25.3214L0.644587 32.3221L0.996657 33.2581ZM19.6079 26.2574L20.5554 25.9377L14.1853 7.0598L13.2378 7.37952L12.2903 7.69924L18.6604 26.5771L19.6079 26.2574ZM13.2378 7.37952L13.8053 8.20293L19.8376 4.04577L19.2701 3.22236L18.7027 2.39895L12.6704 6.55611L13.2378 7.37952ZM19.2701 3.22236L18.634 3.9939L33.9689 16.6384L34.605 15.8668L35.2412 15.0953L19.9063 2.45082L19.2701 3.22236ZM34.605 15.8668L35.3571 16.5259L48.4714 1.56241L47.7194 0.903305L46.9673 0.244196L33.853 15.2077L34.605 15.8668ZM47.7194 0.903305L47.2913 1.80707L53.9118 4.94253L54.3398 4.03877L54.7678 3.135L48.1474 -0.000460053L47.7194 0.903305ZM35.0344 21.1579L35.6706 20.3863L17.4842 5.38985L16.848 6.16138L16.2118 6.9329L34.3982 21.9294L35.0344 21.1579ZM16.848 6.16138L15.9005 6.48109L23.4473 28.8475L24.3948 28.5277L25.3423 28.208L17.7955 5.84167L16.848 6.16138ZM24.3948 28.5277L24.0428 27.5917L1.98578 35.887L2.3378 36.823L2.68981 37.759L24.7468 29.4637L24.3948 28.5277ZM2.3378 36.823L2.14153 37.8036L25.2381 42.4266L25.4344 41.4461L25.6306 40.4655L2.53406 35.8425L2.3378 36.823ZM25.4344 41.4461L24.4478 41.2824L20.5841 64.5748L21.5706 64.7385L22.5571 64.9021L26.4209 41.6097L25.4344 41.4461ZM21.5706 64.7385L22.3227 65.3975L37.8715 47.6541L37.1194 46.9951L36.3673 46.336L20.8185 64.0794L21.5706 64.7385ZM37.1194 46.9951L36.4832 47.7666L54.6696 62.7631L55.3058 61.9915L55.942 61.22L37.7556 46.2235L37.1194 46.9951ZM55.3058 61.9915L56.2533 61.6718L48.7056 39.3053L47.7581 39.6251L46.8106 39.9448L54.3583 62.3113L55.3058 61.9915ZM47.7581 39.6251L48.1101 40.5611L70.168 32.2659L69.816 31.3299L69.464 30.3939L47.4061 38.6891L47.7581 39.6251ZM69.816 31.3299L70.0123 30.3493L46.9079 25.7256L46.7117 26.7061L46.5154 27.6867L69.6198 32.3104L69.816 31.3299ZM46.7117 26.7061L47.6981 26.8701L51.5698 3.57743L50.5833 3.41346L49.5968 3.2495L45.7252 26.5422L46.7117 26.7061ZM50.5833 3.41346L49.8312 2.75442L34.2823 20.4988L35.0344 21.1579L35.7865 21.8169L51.3354 4.07251L50.5833 3.41346Z" fill="#E7FF7E" mask="url(#path-1-outside-1_2536_2484)"/>
</svg>
