<svg width="70" height="70" viewBox="0 0 70 70" fill="none" xmlns="http://www.w3.org/2000/svg">
<path d="M69.1075 25.8636C69.1314 25.7438 69.1434 25.6119 69.1554 25.4742L69.2393 24.3179L68.203 23.8386C67.6279 23.569 67.3883 23.4612 62.0032 24.8331C58.7267 25.6719 54.7613 26.7742 51.1193 27.8706C45.279 29.626 40.7385 31.1837 37.5218 32.5257C37.4979 32.5257 37.4799 32.5377 37.4559 32.5437C37.4619 32.5197 37.4679 32.4957 37.4739 32.4777C38.8217 29.2605 40.3731 24.7133 42.1282 18.878C43.2244 15.2354 44.3265 11.2693 45.1652 7.99213C46.5369 2.60614 46.4291 2.36649 46.1595 1.79134L45.6623 0.7429L44.5242 0.844747C44.3805 0.856729 44.2547 0.868713 44.1349 0.892677C44.045 0.808802 43.9372 0.736912 43.8234 0.653037L42.865 0L41.9305 0.653037C41.4094 1.01849 41.1937 1.16827 39.6902 6.51832C38.7737 9.77149 37.7494 13.7616 36.8809 17.4641C35.4792 23.3952 34.5567 28.1102 34.1135 31.5671C34.1135 31.5911 34.1015 31.615 34.0955 31.633C34.0775 31.615 34.0596 31.5971 34.0476 31.5851C31.9331 28.8112 28.7763 25.1926 24.6012 20.7532C21.9955 17.9853 19.1143 15.0437 16.6943 12.6772C12.7169 8.79494 12.4534 8.77097 11.8244 8.71705L10.6683 8.62719L10.1831 9.66365C10.1232 9.79545 10.0693 9.90928 10.0274 10.0291C9.91357 10.065 9.79376 10.125 9.66797 10.1789L8.6257 10.6821L8.72752 11.8204C8.78144 12.4555 8.8054 12.7191 12.687 16.6912C15.0471 19.1116 17.9942 21.9933 20.7616 24.5995C25.2002 28.7753 28.8182 31.9326 31.5916 34.0474C31.6096 34.0654 31.6276 34.0834 31.6396 34.0953C31.6156 34.0953 31.5916 34.1073 31.5737 34.1133C28.1114 34.5567 23.4032 35.4793 17.4671 36.8812C13.7652 37.7559 9.77579 38.7804 6.52318 39.691C1.17404 41.1948 1.02429 41.4105 0.658894 41.9317L0 42.8903L0.652916 43.8249C0.736777 43.9387 0.808654 44.0466 0.892515 44.1364C0.868555 44.2563 0.856583 44.3881 0.844603 44.5259L0.760733 45.6821L1.79702 46.1614C2.37207 46.431 2.61166 46.5389 7.99673 45.1669C11.2733 44.3281 15.2387 43.2258 18.8807 42.1294C24.715 40.374 29.2615 38.8163 32.4782 37.4743C32.5021 37.4743 32.5261 37.4624 32.5441 37.4564C32.5441 37.4803 32.5321 37.5043 32.5261 37.5223C31.1783 40.7395 29.6269 45.2867 27.8718 51.1221C26.7756 54.7646 25.6735 58.7307 24.8348 62.0079C23.4631 67.3939 23.5709 67.6335 23.8405 68.2087L24.3377 69.2571L25.4758 69.1553C25.6195 69.1433 25.7453 69.1313 25.8651 69.1073C25.955 69.1912 26.0628 69.2631 26.1766 69.347L27.135 70L28.0695 69.347C28.5906 68.9815 28.8063 68.8317 30.3098 63.4817C31.2262 60.2285 32.2505 56.2384 33.1191 52.5359C34.5208 46.6048 35.4433 41.8898 35.8865 38.4269C35.8865 38.403 35.8985 38.379 35.9045 38.361C35.9225 38.379 35.9344 38.391 35.9524 38.4089C38.0669 41.1828 41.2237 44.8014 45.4048 49.2408C48.0104 52.0087 50.8917 54.9504 53.3117 57.3169C57.2891 61.1991 57.5526 61.223 58.1816 61.277L59.3377 61.3668L59.8229 60.3304C59.8828 60.1986 59.9367 60.0847 59.9786 59.9649C60.0924 59.929 60.2122 59.8691 60.338 59.8092L61.3803 59.3059L61.2785 58.1676C61.2245 57.5325 61.2006 57.2689 57.319 53.2968C54.9589 50.8764 52.0118 47.9947 49.2444 45.3886C44.8058 41.2128 41.1877 38.0555 38.4143 35.9406C38.3964 35.9226 38.3784 35.9047 38.3664 35.8927C38.3904 35.8927 38.4143 35.8807 38.4323 35.8747C41.8946 35.4314 46.6028 34.5027 52.5329 33.1068C56.2348 32.2321 60.2242 31.2076 63.4768 30.297C68.826 28.7932 68.9817 28.5775 69.3411 28.0563L70 27.0977L69.3471 26.1631C69.2632 26.0433 69.1913 25.9415 69.1075 25.8516V25.8636Z" fill="#E7FF7E"/>
</svg>
