<svg width="24" height="24" viewBox="0 0 24 24" fill="none" xmlns="http://www.w3.org/2000/svg">
<mask id="mask0_146_1152" style="mask-type:alpha" maskUnits="userSpaceOnUse" x="0" y="0" width="24" height="24">
<rect width="24" height="24" fill="#D9D9D9"/>
</mask>
<g mask="url(#mask0_146_1152)">
<path d="M11.8711 20.5362C11.6569 20.5362 11.4419 20.4978 11.2259 20.4209C11.0099 20.3439 10.8198 20.2234 10.6556 20.0594L9.21912 18.7537C7.44612 17.137 5.86312 15.5489 4.47012 13.9892C3.07712 12.4295 2.38062 10.7587 2.38062 8.97668C2.38062 7.55752 2.85912 6.36935 3.81612 5.41218C4.77328 4.45518 5.96145 3.97668 7.38062 3.97668C8.18695 3.97668 8.98345 4.1626 9.77011 4.53443C10.5566 4.90627 11.2601 5.5101 11.8806 6.34593C12.5011 5.5101 13.2046 4.90627 13.9911 4.53443C14.7778 4.1626 15.5743 3.97668 16.3806 3.97668C17.7998 3.97668 18.9879 4.45518 19.9451 5.41218C20.9021 6.36935 21.3806 7.55752 21.3806 8.97668C21.3806 10.778 20.6723 12.4674 19.2556 14.0449C17.8389 15.6224 16.2594 17.1971 14.5171 18.7689L13.0959 20.0594C12.9319 20.2234 12.7403 20.3439 12.5211 20.4209C12.3018 20.4978 12.0851 20.5362 11.8711 20.5362ZM11.1614 7.86518C10.6204 7.04085 10.0508 6.43668 9.45262 6.05268C8.85462 5.66868 8.16395 5.47668 7.38062 5.47668C6.38062 5.47668 5.54728 5.81002 4.88062 6.47668C4.21395 7.14335 3.88062 7.97668 3.88062 8.97668C3.88062 9.77918 4.13928 10.6183 4.65662 11.4939C5.17395 12.3696 5.82328 13.2401 6.60462 14.1054C7.38595 14.9709 8.23245 15.8164 9.14412 16.6419C10.0556 17.4676 10.9004 18.2349 11.6786 18.9439C11.7363 18.9953 11.8036 19.0209 11.8806 19.0209C11.9576 19.0209 12.0249 18.9953 12.0826 18.9439C12.8608 18.2349 13.7056 17.4676 14.6171 16.6419C15.5288 15.8164 16.3753 14.9709 17.1566 14.1054C17.9379 13.2401 18.5873 12.3696 19.1046 11.4939C19.622 10.6183 19.8806 9.77918 19.8806 8.97668C19.8806 7.97668 19.5473 7.14335 18.8806 6.47668C18.2139 5.81002 17.3806 5.47668 16.3806 5.47668C15.5973 5.47668 14.9066 5.66868 14.3086 6.05268C13.7104 6.43668 13.1409 7.04085 12.5999 7.86518C12.5152 7.99335 12.4088 8.08952 12.2806 8.15368C12.1524 8.21768 12.0191 8.24968 11.8806 8.24968C11.7421 8.24968 11.6088 8.21768 11.4806 8.15368C11.3524 8.08952 11.246 7.99335 11.1614 7.86518Z" fill="black"/>
</g>
</svg>
