<svg width="24" height="24" viewBox="0 0 24 24" fill="none" xmlns="http://www.w3.org/2000/svg">
<mask id="mask0_146_1153" style="mask-type:alpha" maskUnits="userSpaceOnUse" x="0" y="0" width="24" height="24">
<rect width="24" height="24" fill="#D9D9D9"/>
</mask>
<g mask="url(#mask0_146_1153)">
<path d="M13.5628 11.502L10.1804 8.07089C10.0655 7.95422 10.0067 7.80757 10.0039 7.63095C10.0013 7.45447 10.0601 7.30516 10.1804 7.18301C10.3008 7.061 10.4467 7 10.618 7C10.7894 7 10.9352 7.061 11.0556 7.18301L14.7876 10.9689C14.8653 11.0478 14.9201 11.131 14.952 11.2185C14.984 11.306 15 11.4004 15 11.502C15 11.6035 14.984 11.698 14.952 11.7854C14.9201 11.8729 14.8653 11.9561 14.7876 12.035L11.0556 15.8209C10.9406 15.9374 10.7961 15.9971 10.622 15.9999C10.448 16.0026 10.3008 15.9429 10.1804 15.8209C10.0601 15.6988 10 15.5508 10 15.377C10 15.2032 10.0601 15.0552 10.1804 14.933L13.5628 11.502Z" fill="black"/>
</g>
</svg>
