<svg width="24" height="24" viewBox="0 0 24 24" fill="none" xmlns="http://www.w3.org/2000/svg">
<mask id="mask0_452_8028" style="mask-type:alpha" maskUnits="userSpaceOnUse" x="0" y="0" width="24" height="24">
<rect width="24" height="24" fill="#D9D9D9"/>
</mask>
<g mask="url(#mask0_452_8028)">
<path d="M4.30775 21.5C3.80258 21.5 3.375 21.325 3.025 20.975C2.675 20.625 2.5 20.1974 2.5 19.6922V6.30773C2.5 5.80257 2.675 5.37498 3.025 5.02498C3.375 4.67498 3.80258 4.49998 4.30775 4.49998H8.675C8.88783 4.49998 9.06608 4.57182 9.20975 4.71548C9.35325 4.85898 9.425 5.03715 9.425 5.24998C9.425 5.46282 9.35325 5.64098 9.20975 5.78448C9.06608 5.92815 8.88783 5.99998 8.675 5.99998H4.30775C4.23075 5.99998 4.16025 6.03207 4.09625 6.09623C4.03208 6.16023 4 6.23073 4 6.30773V19.6922C4 19.7692 4.03208 19.8397 4.09625 19.9037C4.16025 19.9679 4.23075 20 4.30775 20H17.6923C17.7692 20 17.8398 19.9679 17.9038 19.9037C17.9679 19.8397 18 19.7692 18 19.6922V14.2307C18 14.0179 18.0718 13.8397 18.2155 13.696C18.359 13.5525 18.5372 13.4807 18.75 13.4807C18.9628 13.4807 19.141 13.5525 19.2845 13.696C19.4282 13.8397 19.5 14.0179 19.5 14.2307V19.6922C19.5 20.1974 19.325 20.625 18.975 20.975C18.625 21.325 18.1974 21.5 17.6923 21.5H4.30775ZM18.877 8.82298L21.6077 11.5537C21.7461 11.6922 21.8169 11.8663 21.8202 12.076C21.8234 12.2855 21.7526 12.4627 21.6077 12.6077C21.4627 12.7526 21.2871 12.825 21.0807 12.825C20.8744 12.825 20.6988 12.7526 20.5538 12.6077L17.823 9.87699C17.4987 10.109 17.1381 10.2901 16.7413 10.4202C16.3446 10.5502 15.9308 10.6152 15.5 10.6152C14.3525 10.6152 13.3798 10.2162 12.5817 9.41823C11.7837 8.62023 11.3848 7.64748 11.3848 6.49998C11.3848 5.35248 11.7837 4.37974 12.5817 3.58174C13.3798 2.78374 14.3525 2.38474 15.5 2.38474C16.6475 2.38474 17.6202 2.78374 18.4183 3.58174C19.2162 4.37974 19.6152 5.35248 19.6152 6.49998C19.6152 6.94998 19.547 7.36857 19.4105 7.75573C19.274 8.1429 19.0962 8.49865 18.877 8.82298ZM15.5 9.11548C16.232 9.11548 16.8509 8.86257 17.3568 8.35674C17.8626 7.8509 18.1155 7.23198 18.1155 6.49998C18.1155 5.76798 17.8626 5.14907 17.3568 4.64323C16.8509 4.1374 16.232 3.88448 15.5 3.88448C14.768 3.88448 14.1491 4.1374 13.6432 4.64323C13.1374 5.14907 12.8845 5.76798 12.8845 6.49998C12.8845 7.23198 13.1374 7.8509 13.6432 8.35674C14.1491 8.86257 14.768 9.11548 15.5 9.11548ZM4 20V5.99998V12.6152V12.325V20Z" fill="black"/>
</g>
</svg>
