<svg width="24" height="24" viewBox="0 0 24 24" fill="none" xmlns="http://www.w3.org/2000/svg">
<mask id="mask0_146_1154" style="mask-type:alpha" maskUnits="userSpaceOnUse" x="0" y="0" width="24" height="24">
<rect width="24" height="24" fill="#D9D9D9"/>
</mask>
<g mask="url(#mask0_146_1154)">
<path d="M10.4372 11.498L13.8196 14.9291C13.9345 15.0458 13.9933 15.1924 13.9961 15.369C13.9987 15.5455 13.9399 15.6948 13.8196 15.817C13.6992 15.939 13.5533 16 13.382 16C13.2106 16 13.0648 15.939 12.9444 15.817L9.21237 12.0311C9.13473 11.9522 9.07993 11.869 9.04796 11.7815C9.01599 11.694 9 11.5996 9 11.498C9 11.3965 9.01599 11.302 9.04796 11.2146C9.07993 11.1271 9.13473 11.0439 9.21237 10.965L12.9444 7.17909C13.0594 7.06256 13.2039 7.00289 13.378 7.00009C13.552 6.99742 13.6992 7.05709 13.8196 7.17909C13.9399 7.30124 14 7.44922 14 7.62304C14 7.79685 13.9399 7.94483 13.8196 8.06698L10.4372 11.498Z" fill="black"/>
</g>
</svg>
