<svg width="24" height="24" viewBox="0 0 24 24" fill="none" xmlns="http://www.w3.org/2000/svg">
<mask id="mask0_287_4594" style="mask-type:alpha" maskUnits="userSpaceOnUse" x="0" y="0" width="24" height="24">
<rect width="24" height="24" fill="#D9D9D9"/>
</mask>
<g mask="url(#mask0_287_4594)">
<path d="M5.30775 20.5C4.80258 20.5 4.375 20.325 4.025 19.975C3.675 19.625 3.5 19.1974 3.5 18.6923V5.30775C3.5 4.80258 3.675 4.375 4.025 4.025C4.375 3.675 4.80258 3.5 5.30775 3.5H12.0577C12.2702 3.5 12.4483 3.57192 12.592 3.71575C12.7358 3.85958 12.8077 4.03775 12.8077 4.25025C12.8077 4.46292 12.7358 4.641 12.592 4.7845C12.4483 4.92817 12.2702 5 12.0577 5H5.30775C5.21792 5 5.14417 5.02883 5.0865 5.0865C5.02883 5.14417 5 5.21792 5 5.30775V18.6923C5 18.7821 5.02883 18.8558 5.0865 18.9135C5.14417 18.9712 5.21792 19 5.30775 19H18.6923C18.7821 19 18.8558 18.9712 18.9135 18.9135C18.9712 18.8558 19 18.7821 19 18.6923V11.9423C19 11.7298 19.0719 11.5517 19.2158 11.408C19.3596 11.2642 19.5378 11.1923 19.7502 11.1923C19.9629 11.1923 20.141 11.2642 20.2845 11.408C20.4282 11.5517 20.5 11.7298 20.5 11.9423V18.6923C20.5 19.1974 20.325 19.625 19.975 19.975C19.625 20.325 19.1974 20.5 18.6923 20.5H5.30775ZM6.38475 16.6923H17.6152L14.125 12.0385L11.125 15.9327L9 13.2308L6.38475 16.6923ZM17 7H15.75C15.5375 7 15.3593 6.92808 15.2155 6.78425C15.0718 6.64042 15 6.46225 15 6.24975C15 6.03708 15.0718 5.859 15.2155 5.7155C15.3593 5.57183 15.5375 5.5 15.75 5.5H17V4.25C17 4.0375 17.0719 3.85942 17.2158 3.71575C17.3596 3.57192 17.5378 3.5 17.7503 3.5C17.9629 3.5 18.141 3.57192 18.2845 3.71575C18.4282 3.85942 18.5 4.0375 18.5 4.25V5.5H19.75C19.9625 5.5 20.1406 5.57192 20.2843 5.71575C20.4281 5.85958 20.5 6.03775 20.5 6.25025C20.5 6.46292 20.4281 6.641 20.2843 6.7845C20.1406 6.92817 19.9625 7 19.75 7H18.5V8.25C18.5 8.4625 18.4281 8.64067 18.2843 8.7845C18.1404 8.92817 17.9622 9 17.7498 9C17.5371 9 17.359 8.92817 17.2155 8.7845C17.0718 8.64067 17 8.4625 17 8.25V7Z" fill="black"/>
</g>
</svg>
