<svg width="24" height="24" viewBox="0 0 24 24" fill="none" xmlns="http://www.w3.org/2000/svg">
<mask id="mask0_146_1156" style="mask-type:alpha" maskUnits="userSpaceOnUse" x="0" y="0" width="24" height="24">
<rect width="24" height="24" fill="#D9D9D9"/>
</mask>
<g mask="url(#mask0_146_1156)">
<path d="M13.5239 12.5027L8.20508 7.20721C8.06481 7.06755 7.99649 6.90129 8.00014 6.70844C8.00379 6.51558 8.07575 6.34927 8.21603 6.20949C8.3563 6.06983 8.5233 6 8.717 6C8.91071 6 9.07776 6.06983 9.21815 6.20949L14.6238 11.6023C14.7514 11.7294 14.846 11.8718 14.9075 12.0295C14.9692 12.1872 15 12.345 15 12.5027C15 12.6604 14.9692 12.8181 14.9075 12.9758C14.846 13.1335 14.7514 13.2759 14.6238 13.403L9.20721 18.7958C9.06693 18.9355 8.90176 19.0035 8.7117 18.9999C8.52153 18.9962 8.3563 18.9246 8.21603 18.7849C8.07575 18.6453 8.00561 18.479 8.00561 18.2862C8.00561 18.0933 8.07575 17.927 8.21603 17.7872L13.5239 12.5027Z" fill="black"/>
</g>
</svg>
