<svg width="24" height="24" viewBox="0 0 24 24" fill="none" xmlns="http://www.w3.org/2000/svg">
<mask id="mask0_146_1147" style="mask-type:alpha" maskUnits="userSpaceOnUse" x="0" y="0" width="24" height="24">
<rect width="24" height="24" fill="#D9D9D9"/>
</mask>
<g mask="url(#mask0_146_1147)">
<path d="M11.6647 12.7152H6.66467C6.45217 12.7152 6.27409 12.6433 6.13042 12.4995C5.98659 12.3556 5.91467 12.1775 5.91467 11.965C5.91467 11.7523 5.98659 11.5742 6.13042 11.4307C6.27409 11.287 6.45217 11.2152 6.66467 11.2152H11.6647V6.21521C11.6647 6.00271 11.7366 5.82463 11.8804 5.68096C12.0243 5.53713 12.2024 5.46521 12.4149 5.46521C12.6276 5.46521 12.8057 5.53713 12.9492 5.68096C13.0928 5.82463 13.1647 6.00271 13.1647 6.21521V11.2152H18.1647C18.3772 11.2152 18.5553 11.2871 18.6989 11.431C18.8428 11.5748 18.9147 11.753 18.9147 11.9655C18.9147 12.1781 18.8428 12.3562 18.6989 12.4997C18.5553 12.6434 18.3772 12.7152 18.1647 12.7152H13.1647V17.7152C13.1647 17.9277 13.0928 18.1058 12.9489 18.2495C12.8051 18.3933 12.6269 18.4652 12.4144 18.4652C12.2018 18.4652 12.0237 18.3933 11.8802 18.2495C11.7365 18.1058 11.6647 17.9277 11.6647 17.7152V12.7152Z" fill="black"/>
</g>
</svg>
