<svg xmlns="http://www.w3.org/2000/svg" width="24" height="24" viewBox="0 0 24 24" fill="none">
  <mask id="mask0_146_1159" style="mask-type:alpha" maskUnits="userSpaceOnUse" x="0" y="0" width="24" height="24">
    <rect width="24" height="24" fill="#D9D9D9"/>
  </mask>
  <g mask="url(#mask0_146_1159)">
    <path d="M11.9905 20.7094C11.7763 20.7094 11.5612 20.671 11.3453 20.5942C11.1293 20.5172 10.9392 20.3967 10.775 20.2327L9.3385 18.9269C7.5655 17.3102 5.9825 15.7221 4.5895 14.1624C3.1965 12.6027 2.5 10.9319 2.5 9.1499C2.5 7.73074 2.9785 6.54257 3.9355 5.5854C4.89267 4.6284 6.08083 4.1499 7.5 4.1499C8.30633 4.1499 9.10283 4.33582 9.8895 4.70765C10.676 5.07949 11.3795 5.68332 12 6.51915C12.6205 5.68332 13.324 5.07949 14.1105 4.70765C14.8972 4.33582 15.6937 4.1499 16.5 4.1499C17.9192 4.1499 19.1073 4.6284 20.0645 5.5854C21.0215 6.54257 21.5 7.73074 21.5 9.1499C21.5 10.9512 20.7917 12.6407 19.375 14.2182C17.9583 15.7957 16.3788 17.3703 14.6365 18.9422L13.2153 20.2327C13.0513 20.3967 12.8597 20.5172 12.6405 20.5942C12.4212 20.671 12.2045 20.7094 11.9905 20.7094Z" fill="black"/>
  </g>
</svg>