<svg width="13" height="10" viewBox="0 0 13 10" fill="none" xmlns="http://www.w3.org/2000/svg">
<path d="M4.67108 7.54284L1.65211 4.2733C1.47212 4.07862 1.24588 3.97894 0.973398 3.97425C0.701133 3.96979 0.470779 4.06947 0.282338 4.2733C0.0941127 4.47736 0 4.72458 0 5.01495C0 5.30533 0.0941127 5.55255 0.282338 5.75661L3.84876 9.61862C4.08377 9.87287 4.35787 10 4.67108 10C4.98428 10 5.25839 9.87287 5.4934 9.61862L12.7237 1.78904C12.9035 1.59413 12.9955 1.34914 12.9999 1.05407C13.004 0.759243 12.9119 0.509799 12.7237 0.305739C12.5353 0.101913 12.307 0 12.0388 0C11.7707 0 11.5424 0.101913 11.3539 0.305739L4.67108 7.54284Z" fill="currentColor"/>
<path d="M1.65211 4.2733L4.67108 7.54284L11.3539 0.305739C11.5424 0.101913 11.7707 0 12.0388 0C12.307 0 12.5353 0.101913 12.7237 0.305739C12.9119 0.509799 13.004 0.759243 12.9999 1.05407C12.9955 1.34914 12.9035 1.59413 12.7237 1.78904L5.4934 9.61862C5.25839 9.87287 4.98428 10 4.67108 10C4.35787 10 4.08377 9.87287 3.84876 9.61862L0.282338 5.75661C0.0941127 5.55255 0 5.30533 0 5.01495C0 4.72458 0.0941127 4.47736 0.282338 4.2733C0.470779 4.06947 0.701133 3.96979 0.973398 3.97425C1.24588 3.97894 1.47212 4.07862 1.65211 4.2733Z" fill="currentColor"/>
</svg>
