<svg width="24" height="24" viewBox="0 0 24 24" fill="none" xmlns="http://www.w3.org/2000/svg">
<mask id="mask0_146_1157" style="mask-type:alpha" maskUnits="userSpaceOnUse" x="0" y="0" width="24" height="24">
<rect width="24" height="24" fill="#D9D9D9"/>
</mask>
<g mask="url(#mask0_146_1157)">
<path d="M12.498 14C12.3965 14 12.302 13.984 12.2146 13.952C12.1271 13.9201 12.0439 13.8653 11.965 13.7876L8.17909 10.0556C8.06256 9.94063 8.00289 9.79607 8.00009 9.62196C7.99742 9.448 8.05709 9.30081 8.17909 9.1804C8.30124 9.06013 8.44922 9 8.62303 9C8.79685 9 8.94483 9.06013 9.06698 9.1804L12.498 12.5628L15.9291 9.1804C16.0458 9.06553 16.1924 9.00671 16.369 9.00394C16.5455 9.00131 16.6948 9.06013 16.817 9.1804C16.939 9.30081 17 9.44668 17 9.61802C17 9.78936 16.939 9.93523 16.817 10.0556L13.0311 13.7876C12.9522 13.8653 12.869 13.9201 12.7815 13.952C12.694 13.984 12.5996 14 12.498 14Z" fill="black"/>
</g>
</svg>
