<svg width="24" height="24" viewBox="0 0 24 24" fill="none" xmlns="http://www.w3.org/2000/svg">
<mask id="mask0_146_1160" style="mask-type:alpha" maskUnits="userSpaceOnUse" x="0" y="0" width="24" height="24">
<rect width="24" height="24" fill="#D9D9D9"/>
</mask>
<g mask="url(#mask0_146_1160)">
<path d="M12.502 10.4462L9.07089 13.8201C8.95422 13.9346 8.80757 13.9933 8.63095 13.9961C8.45447 13.9987 8.30516 13.94 8.18301 13.8201C8.061 13.6999 8 13.5544 8 13.3835C8 13.2126 8.061 13.0671 8.18301 12.947L11.9689 9.22447C12.1213 9.07482 12.2989 9 12.502 9C12.705 9 12.8826 9.07482 13.035 9.22447L16.8209 12.947C16.9374 13.0617 16.9971 13.2059 16.9999 13.3796C17.0026 13.5531 16.9429 13.6999 16.8209 13.8201C16.6988 13.94 16.5508 14 16.377 14C16.2032 14 16.0552 13.94 15.933 13.8201L12.502 10.4462Z" fill="black"/>
</g>
</svg>
