<svg width="20" height="20" viewBox="0 0 20 20" fill="none" xmlns="http://www.w3.org/2000/svg">
<mask id="mask0_506_7878" style="mask-type:alpha" maskUnits="userSpaceOnUse" x="0" y="0" width="20" height="20">
<rect width="20" height="20" fill="#D9D9D9"/>
</mask>
<g mask="url(#mask0_506_7878)">
<path d="M10 10.5017L6.98734 13.4952C6.89748 13.5838 6.81942 13.6255 6.75317 13.6202C6.68692 13.6148 6.60949 13.5678 6.52088 13.4792C6.43227 13.3905 6.38796 13.3104 6.38796 13.2387C6.38796 13.1672 6.43227 13.0865 6.52088 12.9967L9.49838 9.99999L6.50484 7.00812C6.41623 6.91826 6.37456 6.83756 6.37984 6.76603C6.38526 6.69451 6.43227 6.61437 6.52088 6.52562C6.60949 6.43701 6.68963 6.3927 6.7613 6.3927C6.83283 6.3927 6.91352 6.43701 7.00338 6.52562L10 9.51916L12.9919 6.52562C13.0818 6.43701 13.1598 6.3927 13.2261 6.3927C13.2923 6.3927 13.3698 6.43701 13.4584 6.52562C13.5364 6.60367 13.5755 6.6811 13.5755 6.75791C13.5755 6.83485 13.5364 6.91826 13.4584 7.00812L10.4809 9.99999L13.4744 13.0127C13.563 13.1026 13.6073 13.1806 13.6073 13.2469C13.6073 13.3131 13.563 13.3905 13.4744 13.4792C13.3964 13.5572 13.3189 13.5962 13.2421 13.5962C13.1652 13.5962 13.0818 13.5572 12.9919 13.4792L10 10.5017Z" fill="#1C1B1F"/>
</g>
</svg>
