<svg width="24" height="24" viewBox="0 0 24 24" fill="none" xmlns="http://www.w3.org/2000/svg">
<mask id="mask0_907_8261" style="mask-type:alpha" maskUnits="userSpaceOnUse" x="0" y="0" width="24" height="24">
<rect width="24" height="24" fill="#D9D9D9"/>
</mask>
<g mask="url(#mask0_907_8261)">
<path d="M4.30775 17.5C3.80258 17.5 3.375 17.325 3.025 16.975C2.675 16.625 2.5 16.1974 2.5 15.6923V4.30775C2.5 3.80258 2.675 3.375 3.025 3.025C3.375 2.675 3.80258 2.5 4.30775 2.5H19.6923C20.1974 2.5 20.625 2.675 20.975 3.025C21.325 3.375 21.5 3.80258 21.5 4.30775V18.8538C21.5 19.2589 21.3151 19.5394 20.9452 19.6952C20.5752 19.8509 20.248 19.7864 19.9635 19.5018L17.9615 17.5H4.30775ZM18.6 16L20 17.3848V4.30775C20 4.23075 19.9679 4.16025 19.9038 4.09625C19.8398 4.03208 19.7693 4 19.6923 4H4.30775C4.23075 4 4.16025 4.03208 4.09625 4.09625C4.03208 4.16025 4 4.23075 4 4.30775V15.6923C4 15.7692 4.03208 15.8398 4.09625 15.9038C4.16025 15.9679 4.23075 16 4.30775 16H18.6Z" fill="#1C1B1F"/>
</g>
</svg>
