<svg width="24" height="24" viewBox="0 0 24 24" fill="none" xmlns="http://www.w3.org/2000/svg">
<mask id="mask0_146_1159" style="mask-type:alpha" maskUnits="userSpaceOnUse" x="0" y="0" width="24" height="24">
<rect width="24" height="24" fill="#D9D9D9"/>
</mask>
<g mask="url(#mask0_146_1159)">
<path d="M11.9905 20.7095C11.7763 20.7095 11.5612 20.6711 11.3453 20.5943C11.1293 20.5173 10.9392 20.3968 10.775 20.2328L9.3385 18.927C7.5655 17.3104 5.9825 15.7222 4.5895 14.1625C3.1965 12.6029 2.5 10.932 2.5 9.15002C2.5 7.73086 2.9785 6.54269 3.9355 5.58552C4.89267 4.62852 6.08083 4.15002 7.5 4.15002C8.30633 4.15002 9.10283 4.33594 9.8895 4.70777C10.676 5.07961 11.3795 5.68344 12 6.51927C12.6205 5.68344 13.324 5.07961 14.1105 4.70777C14.8972 4.33594 15.6937 4.15002 16.5 4.15002C17.9192 4.15002 19.1073 4.62852 20.0645 5.58552C21.0215 6.54269 21.5 7.73086 21.5 9.15002C21.5 10.9514 20.7917 12.6408 19.375 14.2183C17.9583 15.7958 16.3788 17.3704 14.6365 18.9423L13.2153 20.2328C13.0513 20.3968 12.8597 20.5173 12.6405 20.5943C12.4212 20.6711 12.2045 20.7095 11.9905 20.7095Z" fill="black"/>
</g>
</svg>
