<svg width="24" height="24" viewBox="0 0 24 24" fill="none" xmlns="http://www.w3.org/2000/svg">
<path d="M18.75 3.25C19.8546 3.25 20.75 4.14543 20.75 5.25V18.75C20.75 19.8546 19.8546 20.75 18.75 20.75H5.25C4.14543 20.75 3.25 19.8546 3.25 18.75V5.25C3.25 4.14543 4.14543 3.25 5.25 3.25H18.75ZM5.17676 4.75C4.95586 4.75002 4.77637 4.92949 4.77637 5.15039V18.8496C4.77637 19.0705 4.95586 19.25 5.17676 19.25H18.877C19.0978 19.2499 19.2764 19.0705 19.2764 18.8496V5.15039C19.2764 4.92953 19.0978 4.75008 18.877 4.75H5.17676Z" fill="black"/>
<path d="M11.9954 7.25419C12.1398 7.23865 12.3062 7.26467 12.4593 7.35966C12.5676 7.42691 12.6415 7.51096 12.6907 7.5872L12.7327 7.66044L12.7522 7.70341L13.4593 9.3958L13.4602 9.39677C13.6944 9.96076 14.1414 10.4078 14.7054 10.6419L16.2825 11.3011C16.3956 11.3483 16.5334 11.4326 16.6429 11.552C16.6851 11.5982 16.8218 11.753 16.8479 11.9954C16.8635 12.1398 16.8375 12.3062 16.7425 12.4593C16.6527 12.604 16.5325 12.6873 16.4417 12.7327C16.4276 12.7397 16.4132 12.7462 16.3987 12.7522L14.7063 13.4593L14.7054 13.4602C14.1414 13.6944 13.6944 14.1414 13.4602 14.7054L13.4593 14.7063L12.8011 16.2825C12.7538 16.3956 12.6696 16.5334 12.5501 16.6429C12.5041 16.685 12.3492 16.8217 12.1067 16.8479C11.9624 16.8635 11.796 16.8374 11.6429 16.7425C11.4981 16.6527 11.4148 16.5325 11.3694 16.4417C11.3624 16.4276 11.356 16.4132 11.3499 16.3987L10.6419 14.7063C10.4078 14.1424 9.96075 13.6944 9.39677 13.4602L9.3958 13.4593L7.81962 12.8011C7.70658 12.7538 7.56878 12.6696 7.45927 12.5501C7.4172 12.5042 7.28044 12.3493 7.25419 12.1067C7.23865 11.9623 7.26468 11.796 7.35966 11.6429C7.44947 11.4981 7.56967 11.4148 7.66044 11.3694L7.70341 11.3499L9.3958 10.6419C9.95978 10.4078 10.4078 9.96076 10.6419 9.39677L11.3011 7.81962C11.3483 7.70658 11.4326 7.56878 11.552 7.45927C11.598 7.41711 11.7529 7.28039 11.9954 7.25419ZM11.9339 9.93291C11.5577 10.8391 10.8401 11.5587 9.93388 11.9349L9.9329 11.9339L9.65458 12.0501L9.9329 12.1673C10.8385 12.5432 11.5575 13.261 11.9339 14.1663L12.0501 14.4466L12.1683 14.1663C12.5447 13.261 13.2627 12.5432 14.1683 12.1673L14.4456 12.0501L14.1683 11.9349L14.0003 11.8597C13.1735 11.4674 12.5199 10.7833 12.1673 9.93388L12.0501 9.65458L11.9339 9.93291Z" fill="black"/>
</svg>
