<svg width="24" height="24" viewBox="0 0 24 24" fill="none" xmlns="http://www.w3.org/2000/svg">
<mask id="mask0_146_1158" style="mask-type:alpha" maskUnits="userSpaceOnUse" x="0" y="0" width="24" height="24">
<rect width="24" height="24" fill="#D9D9D9"/>
</mask>
<g mask="url(#mask0_146_1158)">
<path d="M8.47483 12.5028L13.7897 17.8027C13.9299 17.9425 13.9982 18.107 13.9947 18.2964C13.9911 18.4859 13.9192 18.6506 13.779 18.7903C13.6387 18.9301 13.4736 19 13.2837 19C13.0938 19 12.9286 18.9301 12.7884 18.7903L7.37589 13.4039C7.2483 13.2767 7.15376 13.1341 7.09225 12.9763C7.03075 12.8185 7 12.6606 7 12.5028C7 12.345 7.03075 12.1871 7.09225 12.0293C7.15376 11.8714 7.2483 11.7289 7.37589 11.6017L12.7884 6.20435C12.9286 6.06457 13.0956 5.9965 13.2891 6.00014C13.4827 6.00377 13.6496 6.07548 13.7897 6.21526C13.9299 6.35504 14 6.51967 14 6.70917C14 6.89855 13.9299 7.06313 13.7897 7.20291L8.47483 12.5028Z" fill="black"/>
</g>
</svg>
