<svg width="24" height="24" viewBox="0 0 24 24" fill="none" xmlns="http://www.w3.org/2000/svg">
<mask id="mask0_146_1161" style="mask-type:alpha" maskUnits="userSpaceOnUse" x="0" y="0" width="24" height="24">
<rect width="24" height="24" fill="#D9D9D9"/>
</mask>
<g mask="url(#mask0_146_1161)">
<path d="M9.70998 16.0616C8.00231 16.0616 6.55614 15.4693 5.37148 14.2848C4.18698 13.1001 3.59473 11.654 3.59473 9.9463C3.59473 8.23864 4.18698 6.79247 5.37148 5.6078C6.55614 4.4233 8.00231 3.83105 9.70998 3.83105C11.4176 3.83105 12.8638 4.4233 14.0485 5.6078C15.233 6.79247 15.8252 8.23864 15.8252 9.9463C15.8252 10.6605 15.7054 11.3426 15.4657 11.9926C15.2259 12.6426 14.906 13.2079 14.506 13.6886L20.26 19.4426C20.3985 19.5809 20.4693 19.7549 20.4725 19.9646C20.4756 20.1742 20.4048 20.3515 20.26 20.4963C20.1151 20.6411 19.9395 20.7136 19.733 20.7136C19.5266 20.7136 19.3511 20.6411 19.2062 20.4963L13.4522 14.7423C12.9522 15.1551 12.3772 15.4782 11.7272 15.7116C11.0772 15.9449 10.4048 16.0616 9.70998 16.0616ZM9.70998 14.5618C10.9985 14.5618 12.0898 14.1146 12.984 13.2203C13.8783 12.3261 14.3255 11.2348 14.3255 9.9463C14.3255 8.6578 13.8783 7.56647 12.984 6.6723C12.0898 5.77797 10.9985 5.3308 9.70998 5.3308C8.42148 5.3308 7.33014 5.77797 6.43598 6.6723C5.54164 7.56647 5.09448 8.6578 5.09448 9.9463C5.09448 11.2348 5.54164 12.3261 6.43598 13.2203C7.33014 14.1146 8.42148 14.5618 9.70998 14.5618Z" fill="black"/>
</g>
</svg>
