<svg width="23" height="24" viewBox="0 0 23 24" fill="none" xmlns="http://www.w3.org/2000/svg">
<path d="M11.9807 20.5C9.97055 20.5 8.19713 19.8849 6.66046 18.6547C5.12396 17.4246 4.13971 15.8563 3.70771 13.95C3.65388 13.7513 3.68971 13.5685 3.81521 13.4015C3.94071 13.2347 4.11021 13.1379 4.32371 13.1113C4.52454 13.0846 4.70604 13.1251 4.86821 13.2327C5.03038 13.3404 5.14354 13.4988 5.20771 13.7078C5.58838 15.2526 6.40855 16.5208 7.66821 17.5125C8.92788 18.5042 10.3654 19 11.9807 19C13.9307 19 15.5849 18.3208 16.9432 16.9625C18.3015 15.6042 18.9807 13.95 18.9807 12C18.9807 10.05 18.3015 8.39583 16.9432 7.0375C15.5849 5.67917 13.9307 5 11.9807 5C10.8884 5 9.86471 5.24267 8.90971 5.728C7.95455 6.21317 7.13205 6.88075 6.44221 7.73075H8.30771C8.52021 7.73075 8.69829 7.80267 8.84196 7.9465C8.98579 8.09033 9.05771 8.2685 9.05771 8.481C9.05771 8.69367 8.98579 8.87175 8.84196 9.01525C8.69829 9.15892 8.52021 9.23075 8.30771 9.23075H4.88471C4.62854 9.23075 4.41388 9.14408 4.24071 8.97075C4.06738 8.79758 3.98071 8.58292 3.98071 8.32675V4.90375C3.98071 4.69125 4.05263 4.51317 4.19646 4.3695C4.3403 4.22567 4.51855 4.15375 4.73121 4.15375C4.94371 4.15375 5.12179 4.22567 5.26546 4.3695C5.40896 4.51317 5.48071 4.69125 5.48071 4.90375V6.523C6.29221 5.56533 7.26405 4.82208 8.39621 4.29325C9.52821 3.76442 10.723 3.5 11.9807 3.5C13.1607 3.5 14.266 3.72308 15.2965 4.16925C16.327 4.61542 17.2255 5.22183 17.9922 5.9885C18.7589 6.75517 19.3653 7.65367 19.8115 8.684C20.2576 9.7145 20.4807 10.8197 20.4807 11.9995C20.4807 13.1793 20.2576 14.2846 19.8115 15.3152C19.3653 16.3461 18.7589 17.2448 17.9922 18.0115C17.2255 18.7782 16.327 19.3846 15.2965 19.8307C14.266 20.2769 13.1607 20.5 11.9807 20.5ZM11.9807 13.5C11.5717 13.5 11.2195 13.3523 10.924 13.0568C10.6285 12.7613 10.4807 12.409 10.4807 12C10.4807 11.591 10.6285 11.2387 10.924 10.9432C11.2195 10.6477 11.5717 10.5 11.9807 10.5C12.3897 10.5 12.742 10.6477 13.0375 10.9432C13.333 11.2387 13.4807 11.591 13.4807 12C13.4807 12.409 13.333 12.7613 13.0375 13.0568C12.742 13.3523 12.3897 13.5 11.9807 13.5Z" fill="#1C1B1F"/>
</svg>
