<svg width="24" height="24" viewBox="0 0 24 24" fill="none" xmlns="http://www.w3.org/2000/svg">
<mask id="mask0_452_8189" style="mask-type:alpha" maskUnits="userSpaceOnUse" x="0" y="0" width="24" height="24">
<rect width="24" height="24" fill="#D9D9D9"/>
</mask>
<g mask="url(#mask0_452_8189)">
<path d="M15.5 10.6152C14.3525 10.6152 13.3798 10.2162 12.5817 9.41823C11.7837 8.62023 11.3848 7.64748 11.3848 6.49998C11.3848 5.35248 11.7837 4.37974 12.5817 3.58174C13.3798 2.78374 14.3525 2.38474 15.5 2.38474C16.6475 2.38474 17.6202 2.78374 18.4183 3.58174C19.2162 4.37974 19.6152 5.35248 19.6152 6.49998C19.6152 6.94998 19.547 7.36857 19.4105 7.75573C19.274 8.1429 19.0962 8.49865 18.877 8.82298L21.6077 11.5537C21.7461 11.6922 21.8169 11.8663 21.8202 12.076C21.8234 12.2855 21.7526 12.4627 21.6077 12.6077C21.4627 12.7526 21.2871 12.825 21.0807 12.825C20.8744 12.825 20.6988 12.7526 20.5538 12.6077L17.823 9.87699C17.4987 10.109 17.1381 10.2901 16.7413 10.4202C16.3446 10.5502 15.9308 10.6152 15.5 10.6152ZM15.5 9.11548C16.232 9.11548 16.8509 8.86257 17.3568 8.35674C17.8626 7.8509 18.1155 7.23198 18.1155 6.49998C18.1155 5.76798 17.8626 5.14907 17.3568 4.64323C16.8509 4.1374 16.232 3.88448 15.5 3.88448C14.768 3.88448 14.1491 4.1374 13.6432 4.64323C13.1374 5.14907 12.8845 5.76798 12.8845 6.49998C12.8845 7.23198 13.1374 7.8509 13.6432 8.35674C14.1491 8.86257 14.768 9.11548 15.5 9.11548ZM4.30775 21.5C3.80258 21.5 3.375 21.325 3.025 20.975C2.675 20.625 2.5 20.1974 2.5 19.6922V6.30773C2.5 5.80257 2.675 5.37498 3.025 5.02498C3.375 4.67498 3.80258 4.49998 4.30775 4.49998H8.69425C8.95192 4.49998 9.16283 4.6064 9.327 4.81924C9.491 5.03207 9.54417 5.26732 9.4865 5.52498C9.45583 5.70065 9.43533 5.8814 9.425 6.06723C9.41483 6.25323 9.40975 6.43399 9.40975 6.60949C9.40975 8.31082 10.0065 9.73298 11.2 10.876C12.3937 12.0188 13.8353 12.5902 15.525 12.5902C15.8288 12.5902 16.1343 12.5694 16.4413 12.5277C16.7484 12.4861 17.0623 12.4185 17.3828 12.325L18.9538 13.8577C19.1308 14.0217 19.266 14.2166 19.3595 14.4422C19.4532 14.6679 19.5 14.9044 19.5 15.1517V19.6922C19.5 20.1974 19.325 20.625 18.975 20.975C18.625 21.325 18.1974 21.5 17.6923 21.5H4.30775Z" fill="black"/>
</g>
</svg>
