<svg width="24" height="24" viewBox="0 0 24 24" fill="none" xmlns="http://www.w3.org/2000/svg">
<path d="M19 3.15039C20.0215 3.1506 20.8496 3.9784 20.8496 5V19C20.8494 20.0214 20.0214 20.8494 19 20.8496H5C3.9784 20.8496 3.1506 20.0215 3.15039 19V5C3.15039 3.97827 3.97827 3.15039 5 3.15039H19ZM12.0547 7.92188C12.018 7.84869 11.9271 7.96245 11.8955 8.03809L11.2363 9.61426C10.9312 10.3492 10.3483 10.9312 9.61328 11.2363L7.92188 11.9443C7.84853 11.981 7.96243 12.0719 8.03809 12.1035L9.61328 12.7627C10.3484 13.0678 10.9312 13.6506 11.2363 14.3857L11.9443 16.0771C11.981 16.1504 12.0718 16.0376 12.1035 15.9619L12.7627 14.3857C13.0678 13.6507 13.6498 13.0679 14.3848 12.7627L16.0771 12.0547C16.1502 12.018 16.0366 11.9271 15.9609 11.8955L14.3848 11.2363C13.65 10.9312 13.0678 10.3491 12.7627 9.61426L12.0547 7.92188Z" fill="black"/>
</svg>
