<svg width="100" height="21" viewBox="0 0 100 21" fill="none" xmlns="http://www.w3.org/2000/svg">
<path d="M94.9503 8.28832V5.22389H92.6021V0.349609H99.9999V4.50406C99.9999 6.58129 98.2128 8.28832 96.0101 8.28832H94.9503Z" fill="#E3E3E3"/>
<path d="M77.868 16.8031V4.05176H91.7701V16.8031H86.0139V9.87211C86.0139 9.19341 85.5152 8.67924 84.8294 8.67924C84.1437 8.67924 83.6242 9.19341 83.6242 9.87211V16.8031H77.868Z" fill="#E3E3E3"/>
<path d="M74.0638 6.54018C72.2559 6.54018 70.7597 5.07995 70.7597 3.29066C70.7597 1.48079 72.2559 0 74.0638 0C75.8716 0 77.3471 1.48079 77.3471 3.29066C77.3471 5.07995 75.8716 6.54018 74.0638 6.54018ZM71.0714 16.8029V7.03378H77.0354V16.8029H71.0714Z" fill="#E3E3E3"/>
<path d="M63.5672 4.05176C67.3908 4.05176 70.4455 6.91051 70.4455 10.4068C70.4455 14.006 67.3908 16.803 63.5672 16.803H62.258V20.505H56.5019V4.05176H63.5672ZM63.1308 8.84377C62.258 8.84377 61.5307 9.54304 61.5307 10.4274C61.5307 11.2912 62.258 11.9905 63.1308 11.9905C64.0036 11.9905 64.7101 11.2912 64.7101 10.4274C64.7101 9.54304 64.0036 8.84377 63.1308 8.84377Z" fill="#E3E3E3"/>
<path d="M48.9959 4.05176C52.8195 4.05176 55.8742 6.91051 55.8742 10.4068C55.8742 14.006 52.8195 16.803 48.9959 16.803H47.6867V20.505H41.9305V4.05176H48.9959ZM48.5595 8.84377C47.6867 8.84377 46.9594 9.54304 46.9594 10.4274C46.9594 11.2912 47.6867 11.9905 48.5595 11.9905C49.4322 11.9905 50.1388 11.2912 50.1388 10.4274C50.1388 9.54304 49.4322 8.84377 48.5595 8.84377Z" fill="#E3E3E3"/>
<path d="M36.0012 4.05176C38.5988 4.05176 41.0924 6.51975 41.0924 9.09057V16.8031H27.4397V7.03392H32.0114V4.05176H36.0012ZM34.2557 10.0366C33.4245 10.0366 32.7387 10.6948 32.7387 11.538C32.7387 12.3607 33.4245 13.0188 34.2557 13.0188C35.0869 13.0188 35.7519 12.3607 35.7519 11.538C35.7519 10.6948 35.0869 10.0366 34.2557 10.0366Z" fill="#E3E3E3"/>
<path d="M12.7673 16.8031V4.05176H26.6694V16.8031H20.9132V9.87211C20.9132 9.19341 20.4145 8.67924 19.7287 8.67924C19.043 8.67924 18.5235 9.19341 18.5235 9.87211V16.8031H12.7673Z" fill="#E3E3E3"/>
<path d="M0 16.8029V11.2499H3.28331L2.1196 6.91035C1.10136 3.10553 2.99238 0.349609 6.56662 0.349609H12.0942V5.90259H9.08105L10.2863 10.4272C11.263 14.1087 9.37197 16.8029 5.79774 16.8029H0Z" fill="#E3E3E3"/>
</svg>
