<svg width="121" height="25" viewBox="0 0 121 25" fill="none" xmlns="http://www.w3.org/2000/svg">
<path d="M115.271 10.1072C115.06 10.1072 114.89 9.93727 114.89 9.7276V6.75032C114.89 6.54065 114.72 6.37068 114.509 6.37068H112.429C112.219 6.37068 112.049 6.20071 112.049 5.99104V0.80694C112.049 0.597269 112.219 0.427297 112.429 0.427297H120.619C120.83 0.427297 121 0.597269 121 0.80694V5.49296C121 8.0258 118.838 10.1072 116.172 10.1072H115.271Z" fill="#E7FF7E"/>
<path d="M94.6035 20.486C94.3932 20.486 94.2228 20.3161 94.2228 20.1064V5.31759C94.2228 5.10792 94.3932 4.93795 94.6035 4.93795H110.663C110.874 4.93795 111.044 5.10792 111.044 5.31759V20.1064C111.044 20.3161 110.874 20.486 110.663 20.486H104.46C104.25 20.486 104.079 20.3161 104.079 20.1064V12.0349C104.079 11.2073 103.476 10.5804 102.646 10.5804C101.816 10.5804 101.188 11.2073 101.188 12.0349V20.1064C101.188 20.3161 101.017 20.486 100.807 20.486H94.6035Z" fill="#E7FF7E"/>
<path d="M89.6165 7.97467C87.429 7.97467 85.6186 6.19416 85.6186 4.01241C85.6186 1.80558 87.429 0 89.6165 0C91.804 0 93.5893 1.80558 93.5893 4.01241C93.5893 6.19416 91.804 7.97467 89.6165 7.97467ZM86.3764 20.4884C86.1662 20.4884 85.9958 20.3184 85.9958 20.1087V8.95617C85.9958 8.7465 86.1662 8.57653 86.3764 8.57653H92.8315C93.0417 8.57653 93.2121 8.7465 93.2121 8.95617V20.1087C93.2121 20.3184 93.0417 20.4884 92.8314 20.4884H86.3764Z" fill="#E7FF7E"/>
<path d="M76.9128 4.93795C81.5393 4.93795 85.2354 8.42373 85.2354 12.6869C85.2354 17.0755 81.5393 20.486 76.9128 20.486H75.7094C75.4992 20.486 75.3287 20.656 75.3287 20.8657V24.6204C75.3287 24.83 75.1583 25 74.9481 25H68.7445C68.5343 25 68.3639 24.83 68.3639 24.6204V5.31759C68.3639 5.10792 68.5343 4.93795 68.7445 4.93795H76.9128ZM76.3848 10.781C75.3287 10.781 74.4487 11.6337 74.4487 12.712C74.4487 13.7653 75.3287 14.6179 76.3848 14.6179C77.4408 14.6179 78.2957 13.7653 78.2957 12.712C78.2957 11.6337 77.4408 10.781 76.3848 10.781Z" fill="#E7FF7E"/>
<path d="M59.2818 4.93795C63.9082 4.93795 67.6044 8.42373 67.6044 12.6869C67.6044 17.0755 63.9082 20.486 59.2818 20.486H58.0783C57.8681 20.486 57.6977 20.656 57.6977 20.8657V24.6204C57.6977 24.83 57.5273 25 57.317 25H51.1135C50.9033 25 50.7328 24.83 50.7328 24.6204V5.31759C50.7328 5.10792 50.9033 4.93795 51.1135 4.93795H59.2818ZM58.7537 10.781C57.6977 10.781 56.8177 11.6337 56.8177 12.712C56.8177 13.7653 57.6977 14.6179 58.7537 14.6179C59.8098 14.6179 60.6647 13.7653 60.6647 12.712C60.6647 11.6337 59.8098 10.781 58.7537 10.781Z" fill="#E7FF7E"/>
<path d="M15.8309 20.486C15.6207 20.486 15.4503 20.3161 15.4503 20.1064V5.31759C15.4503 5.10792 15.6207 4.93795 15.8309 4.93795H31.8909C32.1011 4.93795 32.2716 5.10792 32.2716 5.31759V20.1064C32.2716 20.3161 32.1011 20.486 31.8909 20.486H25.6873C25.4771 20.486 25.3067 20.3161 25.3067 20.1064V12.0349C25.3067 11.2073 24.7032 10.5804 23.8735 10.5804C23.0437 10.5804 22.4152 11.2073 22.4152 12.0349V20.1064C22.4152 20.3161 22.2447 20.486 22.0345 20.486H15.8309Z" fill="#E7FF7E"/>
<path d="M0.380646 20.4893C0.170421 20.4893 0 20.3194 0 20.1097V14.0981C0 13.8884 0.170421 13.7184 0.380647 13.7184H3.47789C3.7278 13.7184 3.90991 13.4823 3.8458 13.2414L2.56468 8.42704C1.33263 3.78769 3.62072 0.427297 7.94548 0.427297H14.2531C14.4633 0.427297 14.6338 0.597269 14.6338 0.80694V6.8186C14.6338 7.02827 14.4633 7.19824 14.2531 7.19824H11.4819C11.2322 7.19824 11.0502 7.4339 11.1138 7.67466L12.4462 12.7153C13.628 17.2042 11.3399 20.4893 7.01515 20.4893H0.380646Z" fill="#E7FF7E"/>
<path fill-rule="evenodd" clip-rule="evenodd" d="M43.5644 4.93832C46.1884 4.93839 48.7245 7.03599 49.4905 9.55284C49.5609 9.78405 49.3799 10.0071 49.1376 10.0071H46.0092C45.799 10.0071 45.6286 10.1771 45.6286 10.3868V12.3243C45.6286 12.534 45.799 12.7039 46.0092 12.7039H49.344C49.5542 12.7039 49.7246 12.8739 49.7246 13.0836V20.1066C49.7246 20.3163 49.5542 20.4862 49.344 20.4862H33.5858C33.3756 20.4862 33.2051 20.3163 33.2051 20.1066V8.95422C33.2051 8.74455 33.3756 8.57458 33.5858 8.57458H38.3561C38.5664 8.57458 38.7368 8.40461 38.7368 8.19494V5.31796C38.7368 5.10829 38.9072 4.93832 39.1174 4.93832H43.5644ZM41.4522 12.2361C40.4465 12.2361 39.6167 13.0383 39.6167 14.0664C39.6167 15.0695 40.4465 15.8723 41.4522 15.8723C42.458 15.8723 43.2625 15.0695 43.2625 14.0664C43.2625 13.0383 42.4579 12.2361 41.4522 12.2361Z" fill="#E7FF7E"/>
</svg>
