<svg xmlns="http://www.w3.org/2000/svg" width="50" height="50" viewBox="0 0 50 50" fill="none">
  <path d="M50 25C50 38.8071 38.8071 50 25 50C11.1929 50 0 38.8071 0 25C0 11.1929 11.1929 0 25 0C38.8071 0 50 11.1929 50 25Z" fill="black"/>
  <path d="M25 0C28.4583 0 31.7083 0.656107 34.75 1.96777C37.7916 3.2811 40.4375 5.06252 42.6875 7.3125C44.9375 9.5625 46.7186 12.2083 48.0303 15.25C49.3436 18.2916 50 21.5417 50 25C50 28.4583 49.3436 31.7084 48.0303 34.75C46.7186 37.7917 44.9375 40.4375 42.6875 42.6875C40.4375 44.9375 37.7917 46.7186 34.75 48.0303C31.7084 49.3436 28.4583 50 25 50C21.5417 50 18.2916 49.3436 15.25 48.0303C12.2083 46.7186 9.5625 44.9375 7.3125 42.6875C5.0625 40.4375 3.28139 37.7917 1.96973 34.75C0.656422 31.7084 0 28.4583 0 25C0 21.5417 0.656422 18.2916 1.96973 15.25C3.28139 12.2083 5.0625 9.5625 7.3125 7.3125C9.56248 5.06252 12.2084 3.2811 15.25 1.96777C18.2917 0.656107 21.5417 0 25 0ZM35.625 16.4375C34.9167 16.4375 34.3333 16.6667 33.875 17.125L21.5 29.5L16.0625 24.0625C15.6042 23.6042 15.0417 23.375 14.375 23.375C13.7083 23.375 13.125 23.625 12.625 24.125C12.1667 24.5833 11.9375 25.1667 11.9375 25.875C11.9375 26.5833 12.1667 27.1667 12.625 27.625L19.75 34.75C20.2083 35.2083 20.7917 35.4375 21.5 35.4375C22.2083 35.4375 22.7917 35.2083 23.25 34.75L37.4375 20.5625C37.8958 20.1042 38.125 19.5417 38.125 18.875C38.125 18.2083 37.875 17.625 37.375 17.125C36.9167 16.6667 36.3333 16.4375 35.625 16.4375Z" fill="#E7FF7E"/>
</svg>