<svg width="947" height="24" viewBox="0 0 947 24" fill="none" xmlns="http://www.w3.org/2000/svg">
<rect width="74.2583" height="23.7627" rx="11.8813" fill="white" fill-opacity="0.14"/>
<path d="M25.8883 3.21781C30.6729 3.21629 34.5534 7.09361 34.5551 11.8781C34.5567 16.6628 30.6785 20.5434 25.8938 20.545C21.1093 20.5463 17.2295 16.6682 17.228 11.8837C17.2267 7.09927 21.1039 3.21955 25.8883 3.21781ZM25.8901 8.91117C24.25 8.9119 22.921 10.2417 22.9213 11.8818C22.9219 13.5222 24.2517 14.8519 25.892 14.8516C27.5325 14.8511 28.8623 13.5204 28.8618 11.88C28.861 10.2397 27.5305 8.91065 25.8901 8.91117Z" fill="#E7FF7E"/>
<path d="M43.3005 12.2947V13.0967H37.2484V12.2947H43.3005ZM40.7683 12.5769V15.0274H39.7732V12.5769H40.7683ZM42.6767 11.0471V11.8269H37.9984V11.0471H42.6767ZM42.6025 8.59663V9.36891H38.9786V11.2254H37.9984V8.59663H42.6025ZM42.4688 9.82189V10.5793H38.6965V9.82189H42.4688ZM48.5878 9.28723V10.0669H46.9022V9.28723H48.5878ZM48.6175 10.6239V11.411H46.9022V10.6239H48.6175ZM49.271 8.33672V12.2427H48.276V8.33672H49.271ZM47.1101 8.80455V11.8937H43.9393V8.80455H47.1101ZM44.9121 9.59169V11.1214H46.1373V9.59169H44.9121ZM46.9913 12.4135C47.7042 12.4135 48.2661 12.5274 48.677 12.7551C49.0879 12.9828 49.2933 13.3021 49.2933 13.713C49.2933 14.1289 49.0879 14.4507 48.677 14.6784C48.271 14.9061 47.7116 15.02 46.9987 15.02C46.2858 15.02 45.724 14.9061 45.3131 14.6784C44.9071 14.4507 44.7041 14.1289 44.7041 13.713C44.7041 13.3021 44.9071 12.9828 45.3131 12.7551C45.724 12.5274 46.2834 12.4135 46.9913 12.4135ZM46.9913 13.1709C46.7091 13.1709 46.4715 13.1907 46.2784 13.2303C46.0853 13.2699 45.9393 13.3294 45.8403 13.4086C45.7413 13.4878 45.6918 13.5893 45.6918 13.713C45.6918 13.8368 45.7413 13.9407 45.8403 14.0249C45.9393 14.1041 46.0853 14.166 46.2784 14.2106C46.4715 14.2502 46.7091 14.27 46.9913 14.27C47.2834 14.27 47.526 14.2502 47.719 14.2106C47.9121 14.166 48.0581 14.1041 48.1571 14.0249C48.2562 13.9407 48.3057 13.8368 48.3057 13.713C48.3057 13.5893 48.2562 13.4878 48.1571 13.4086C48.0581 13.3294 47.9121 13.2699 47.719 13.2303C47.526 13.1907 47.2834 13.1709 46.9913 13.1709ZM55.353 8.33672V13.3269H54.3579V8.33672H55.353ZM56.2292 10.3565V11.1734H55.0782V10.3565H56.2292ZM54.0163 9.0199V9.79218H50.088V9.0199H54.0163ZM52.0559 10.0224C52.3727 10.0224 52.6549 10.0768 52.9024 10.1858C53.1549 10.2947 53.3505 10.4481 53.4891 10.6462C53.6326 10.8392 53.7044 11.062 53.7044 11.3145C53.7044 11.567 53.6326 11.7922 53.4891 11.9902C53.3505 12.1883 53.1549 12.3417 52.9024 12.4506C52.6549 12.5546 52.3727 12.6066 52.0559 12.6066C51.739 12.6066 51.4544 12.5546 51.2019 12.4506C50.9544 12.3417 50.7588 12.1883 50.6153 11.9902C50.4767 11.7922 50.4073 11.567 50.4073 11.3145C50.4073 11.062 50.4767 10.8392 50.6153 10.6462C50.7588 10.4481 50.9544 10.2947 51.2019 10.1858C51.4544 10.0768 51.739 10.0224 52.0559 10.0224ZM52.0559 10.7724C51.843 10.7724 51.6722 10.8194 51.5435 10.9135C51.4197 11.0075 51.3579 11.1412 51.3579 11.3145C51.3579 11.4877 51.4197 11.6214 51.5435 11.7155C51.6722 11.8095 51.843 11.8566 52.0559 11.8566C52.2638 11.8566 52.4296 11.8095 52.5534 11.7155C52.6821 11.6214 52.7465 11.4877 52.7465 11.3145C52.7465 11.1412 52.6821 11.0075 52.5534 10.9135C52.4296 10.8194 52.2638 10.7724 52.0559 10.7724ZM52.546 8.32187V9.39119H51.5584V8.32187H52.546ZM55.5906 14.114V14.9012H51.0311V14.114H55.5906ZM52.0188 12.9482V14.4556H51.0311V12.9482H52.0188Z" fill="#F5F5F5"/>
<rect x="79.2583" width="74.2583" height="23.7627" rx="11.8813" fill="white" fill-opacity="0.14"/>
<path d="M95.4779 3.36676L97.2587 3.32643L97.651 20.6489L93.6847 20.7388L95.4779 3.36676Z" fill="#E7FF7E"/>
<path d="M99.9299 3.26593L101.711 3.2256L102.103 20.5481L98.1367 20.6379L99.9299 3.26593Z" fill="#E7FF7E"/>
<path d="M104.382 3.1651L106.163 3.12477L106.555 20.4473L102.589 20.5371L104.382 3.1651Z" fill="#E7FF7E"/>
<path d="M108.834 3.06427L110.615 3.02394L111.007 20.3464L107.041 20.4363L108.834 3.06427Z" fill="#E7FF7E"/>
<path d="M115.495 8.78227C115.832 8.78227 116.134 8.88128 116.401 9.0793C116.668 9.27238 116.876 9.55208 117.025 9.91842C117.178 10.2798 117.255 10.6981 117.255 11.1734C117.255 11.6585 117.178 12.0843 117.025 12.4506C116.876 12.812 116.668 13.0917 116.401 13.2898C116.134 13.4828 115.832 13.5794 115.495 13.5794C115.158 13.5794 114.856 13.4828 114.589 13.2898C114.322 13.0917 114.111 12.812 113.958 12.4506C113.809 12.0843 113.735 11.6585 113.735 11.1734C113.735 10.6932 113.809 10.2724 113.958 9.911C114.111 9.54961 114.322 9.27238 114.589 9.0793C114.856 8.88128 115.158 8.78227 115.495 8.78227ZM115.495 9.68822C115.332 9.68822 115.188 9.74515 115.064 9.85902C114.945 9.97288 114.851 10.1412 114.782 10.364C114.718 10.5867 114.685 10.8566 114.685 11.1734C114.685 11.4952 114.718 11.7699 114.782 11.9977C114.851 12.2204 114.945 12.3912 115.064 12.51C115.188 12.6239 115.332 12.6808 115.495 12.6808C115.658 12.6808 115.802 12.6239 115.926 12.51C116.049 12.3912 116.143 12.2204 116.208 11.9977C116.277 11.7699 116.312 11.4952 116.312 11.1734C116.312 10.8566 116.277 10.5867 116.208 10.364C116.143 10.1412 116.049 9.97288 115.926 9.85902C115.802 9.74515 115.658 9.68822 115.495 9.68822ZM118.955 8.33672V15.02H117.96V8.33672H118.955ZM119.906 10.8392V11.6561H118.733V10.8392H119.906ZM125.386 8.3293V11.6189H124.399V8.3293H125.386ZM126.27 9.56198V10.364H125.119V9.56198H126.27ZM121.376 8.6189V11.2105H120.389V8.6189H121.376ZM120.953 10.6462C121.438 10.6462 121.923 10.6264 122.409 10.5867C122.894 10.5422 123.381 10.4754 123.871 10.3863L123.983 11.1808C123.478 11.2798 122.975 11.3516 122.475 11.3962C121.98 11.4358 121.473 11.4556 120.953 11.4556H120.389V10.6462H120.953ZM125.386 11.8937V13.765H121.963V14.5299H120.975V13.0298H124.406V12.6586H120.96V11.8937H125.386ZM125.579 14.166V14.9457H120.975V14.166H125.579ZM132.589 13.4828V14.2774H126.537V13.4828H132.589ZM130.05 12.2279V13.8021H129.062V12.2279H130.05ZM131.914 8.75257V10.9952H128.208V12.1016H127.228V10.2229H130.934V9.53228H127.221V8.75257H131.914ZM132.062 11.7155V12.5026H127.228V11.7155H132.062ZM137.803 8.93079V9.7105H133.57V8.93079H137.803ZM138.998 13.3492V14.1511H132.954V13.3492H138.998ZM138.263 8.93079V9.7402C138.263 10.359 138.248 10.8986 138.218 11.359C138.194 11.8145 138.129 12.3467 138.025 12.9556L137.038 12.8665C137.142 12.3021 137.206 11.7947 137.231 11.3442C137.261 10.8887 137.275 10.3541 137.275 9.7402V8.93079H138.263Z" fill="#F5F5F5"/>
<rect x="158.517" width="74.2583" height="23.7627" rx="11.8813" fill="white" fill-opacity="0.14"/>
<path d="M186.889 3.21841L186.94 11.3513L195.072 11.4219L195.071 12.3642L194.035 12.3698C190.122 12.3945 186.912 15.5965 186.878 19.5094L186.87 20.5455L185.927 20.5444L185.877 12.4115L177.744 12.3409L177.745 11.3986L178.781 11.393C182.694 11.3682 185.904 8.16608 185.939 4.25337L185.947 3.21725L186.889 3.21841Z" fill="#E7FF7E"/>
<path d="M200.899 12.3095V14.4779H199.941V12.3095L197.988 8.92336H199.095L200.424 11.2699L201.746 8.92336H202.86L200.899 12.3095ZM203.717 13.5794C203.851 13.4506 203.992 13.3195 204.14 13.1858C204.294 13.0521 204.445 12.9234 204.593 12.7996C204.96 12.4878 205.247 12.2303 205.455 12.0274C205.668 11.8244 205.846 11.6165 205.989 11.4036C206.133 11.1858 206.205 10.9754 206.205 10.7724C206.205 10.5843 206.168 10.4209 206.093 10.2823C206.024 10.1387 205.925 10.0273 205.796 9.94813C205.668 9.86397 205.522 9.82189 205.358 9.82189C205.155 9.82189 204.962 9.88625 204.779 10.015C204.601 10.1387 204.467 10.3021 204.378 10.5051L203.554 10.1338C203.707 9.78228 203.952 9.49515 204.289 9.27238C204.63 9.0496 204.987 8.93821 205.358 8.93821C205.71 8.93821 206.022 9.01495 206.294 9.16841C206.566 9.32188 206.779 9.53971 206.932 9.82189C207.086 10.0991 207.163 10.416 207.163 10.7724C207.163 11.1189 207.064 11.4556 206.866 11.7823C206.673 12.1041 206.44 12.3962 206.168 12.6586C205.9 12.916 205.546 13.2254 205.106 13.5868C204.779 13.8541 204.519 14.0769 204.326 14.2551L203.717 13.5794ZM203.717 13.5794H207.244V14.4111H203.791L203.717 13.5794ZM210.362 11.3962L212.59 14.4779H211.402L209.702 12.1313L209.018 12.8888V14.4779H208.06V8.93079H209.018V11.463L211.276 8.91594H212.553L210.362 11.3962Z" fill="#F5F5F5"/>
<rect x="237.775" width="74.2583" height="23.7627" rx="11.8813" fill="white" fill-opacity="0.14"/>
<path d="M260.508 8.3293V15.0125H259.572V8.3293H260.508ZM259.817 10.8986V11.6858H258.718V10.8986H259.817ZM259 8.44811V14.6932H258.079V8.44811H259ZM256.03 9.06445V12.9259H255.042V9.06445H256.03ZM255.51 12.5546C256.317 12.5546 257.055 12.4902 257.723 12.3615L257.812 13.2081C257.416 13.2774 257.03 13.3269 256.654 13.3566C256.277 13.3863 255.896 13.4011 255.51 13.4011H255.042V12.5546H255.51ZM264.718 12.614V15.0274H263.723V12.614H264.718ZM267.251 12.3244V13.1264H261.206V12.3244H267.251ZM264.592 9.53971V9.68822C264.592 10.0694 264.486 10.4234 264.273 10.7501C264.065 11.0719 263.753 11.3442 263.337 11.567C262.926 11.7897 262.431 11.9333 261.852 11.9977L261.51 11.2254C261.995 11.1709 262.404 11.062 262.736 10.8986C263.072 10.7353 263.32 10.5471 263.478 10.3343C263.642 10.1164 263.723 9.9011 263.723 9.68822V9.53971H264.592ZM264.718 9.53971V9.68822C264.718 9.89615 264.8 10.109 264.963 10.3268C265.127 10.5397 265.374 10.7303 265.706 10.8986C266.043 11.062 266.451 11.1709 266.931 11.2254L266.582 11.9977C266.003 11.9333 265.508 11.7897 265.097 11.567C264.686 11.3442 264.374 11.0694 264.161 10.7427C263.953 10.416 263.849 10.0645 263.849 9.68822V9.53971H264.718ZM266.708 9.08673V9.86644H261.748V9.08673H266.708ZM264.718 8.35157V9.35406H263.723V8.35157H264.718ZM268.417 10.9135C269.154 10.9135 269.721 10.9061 270.117 10.8912C270.518 10.8714 270.924 10.8268 271.335 10.7575L271.409 11.5076C270.983 11.5769 270.558 11.6214 270.132 11.6412C269.711 11.661 269.139 11.6709 268.417 11.6709H267.874V10.9135H268.417ZM270.882 8.62633V10.4828H268.855V11.2699H267.874V9.78476H269.909V9.36891H267.86V8.62633H270.882ZM273.221 12.0571V13.8541H269.731V14.5447H268.751V13.1635H272.241V12.7922H268.743V12.0571H273.221ZM273.407 14.2254V14.9754H268.751V14.2254H273.407ZM273.221 8.33672V11.8046H272.226V8.33672H273.221ZM272.441 9.52485V10.3046H271.201V9.52485H272.441Z" fill="#F5F5F5"/>
<path d="M294.609 13.7751L291.505 12.7133L294.784 12.6473L294.767 10.9233L291.487 10.9272L294.568 9.80102L293.99 8.17687L290.889 9.24541L293.438 7.17986L292.365 5.82994L289.779 7.84734L291.519 5.06738L290.066 4.13943L288.274 6.88752L289.017 3.69124L287.341 3.2859L286.54 6.46618L286.204 3.20312L284.487 3.36269L284.762 6.63239L283.386 3.65449L281.813 4.36429L283.134 7.36579L280.867 4.9968L279.609 6.17721L281.833 8.58812L278.919 7.08482L278.114 8.60957L281.002 10.1678L277.756 9.69166L277.49 11.394L280.725 11.9311L277.5 12.5347L277.802 14.2318L281.037 13.6898L278.184 15.3067L279.02 16.8139L281.903 15.2507L279.729 17.7061L281.009 18.8605L283.229 16.446L281.97 19.4756L283.557 20.1514L284.871 17.1466L284.664 20.4188L286.384 20.5439L286.65 17.2756L287.518 20.4386L289.186 19.9984L288.377 16.8185L290.225 19.5286L291.658 18.5704L289.861 15.8267L292.488 17.7903L293.534 16.4188L290.942 14.4068L294.065 15.4107L294.609 13.7751Z" fill="#E7FF7E"/>
<rect x="317.033" width="74.2583" height="23.7627" rx="11.8813" fill="white" fill-opacity="0.14"/>
<path d="M339.45 9.2501V10.0372H337.482V9.2501H339.45ZM339.45 10.8764V11.6635H337.482V10.8764H339.45ZM340.074 8.33672V13.2155H339.079V8.33672H340.074ZM340.223 14.114V14.9012H335.641V14.114H340.223ZM336.636 12.7328V14.5299H335.641V12.7328H336.636ZM336.317 8.72287C336.643 8.72287 336.94 8.79712 337.208 8.94564C337.48 9.09416 337.693 9.30208 337.846 9.56941C338.005 9.83179 338.084 10.1313 338.084 10.4679C338.084 10.7947 338.005 11.0892 337.846 11.3516C337.693 11.614 337.48 11.8194 337.208 11.968C336.94 12.1165 336.643 12.1907 336.317 12.1907C335.99 12.1907 335.69 12.1165 335.418 11.968C335.146 11.8194 334.933 11.614 334.779 11.3516C334.626 11.0892 334.549 10.7922 334.549 10.4605C334.549 10.1288 334.626 9.83179 334.779 9.56941C334.933 9.30208 335.146 9.09416 335.418 8.94564C335.69 8.79712 335.99 8.72287 336.317 8.72287ZM336.317 9.59169C336.158 9.59169 336.015 9.62634 335.886 9.69565C335.762 9.76496 335.663 9.86644 335.589 10.0001C335.52 10.1288 335.485 10.2823 335.485 10.4605C335.485 10.6387 335.52 10.7947 335.589 10.9283C335.663 11.0571 335.762 11.1561 335.886 11.2254C336.015 11.2947 336.158 11.3293 336.317 11.3293C336.475 11.3293 336.616 11.2947 336.74 11.2254C336.869 11.1561 336.968 11.0571 337.037 10.9283C337.111 10.7947 337.148 10.6387 337.148 10.4605C337.148 10.2823 337.111 10.1288 337.037 10.0001C336.968 9.86644 336.869 9.76496 336.74 9.69565C336.616 9.62634 336.475 9.59169 336.317 9.59169ZM344.403 11.7378V12.6957H343.408V11.7378H344.403ZM346.921 11.1585V11.8788H340.906V11.1585H346.921ZM344.403 8.3293V9.13129H343.408V8.3293H344.403ZM344.225 9.17584V9.30951C344.225 9.63129 344.119 9.91347 343.906 10.1561C343.693 10.3937 343.376 10.5867 342.955 10.7353C342.535 10.8788 342.015 10.9679 341.396 11.0026L341.121 10.2674C341.641 10.2476 342.067 10.1907 342.399 10.0966C342.735 10.0026 342.978 9.88872 343.126 9.75506C343.28 9.61644 343.356 9.46792 343.356 9.30951V9.17584H344.225ZM344.455 9.17584V9.30951C344.455 9.46792 344.53 9.61644 344.678 9.75506C344.827 9.88872 345.067 10.0026 345.399 10.0966C345.735 10.1907 346.163 10.2476 346.683 10.2674L346.416 11.0026C345.797 10.9679 345.277 10.8788 344.856 10.7353C344.436 10.5867 344.119 10.3937 343.906 10.1561C343.693 9.91347 343.587 9.63129 343.587 9.30951V9.17584H344.455ZM346.356 8.84168V9.56198H341.463V8.84168H346.356ZM346.201 12.265V13.9284H342.554V14.5521H341.589V13.2675H345.228V12.9704H341.574V12.265H346.201ZM346.379 14.2551V14.9754H341.589V14.2551H346.379ZM351.161 10.364V11.1511H347.886V10.364H351.161ZM350.01 10.8689V12.1387H349.015V10.8689H350.01ZM351.124 8.73029V9.51743H348.867V10.6907H347.886V8.73029H351.124ZM352.884 8.32187V13.3566H351.881V8.32187H352.884ZM353.055 14.114V14.9012H348.332V14.114H353.055ZM349.327 13.0001V14.4111H348.332V13.0001H349.327ZM347.329 11.8269C348.181 11.8269 348.938 11.8194 349.602 11.8046C350.27 11.7848 350.901 11.7427 351.495 11.6783L351.57 12.3838C350.941 12.4729 350.287 12.5348 349.609 12.5694C348.936 12.5991 348.218 12.614 347.456 12.614L347.329 11.8269Z" fill="#F5F5F5"/>
<path d="M370.768 4.3346L367.521 9.76404L372.958 6.52979L374.068 7.16187L374.058 16.6189L372.947 17.2486L367.517 14.0025L370.752 19.4392L370.12 20.5497L360.662 20.5398L360.033 19.4282L363.279 13.9981L357.842 17.2328L356.732 16.6007L356.741 7.1437L357.853 6.51395L363.283 9.7596L360.048 4.32312L360.681 3.21287L370.138 3.22278L370.768 4.3346Z" fill="#E7FF7E"/>
<rect x="396.292" width="74.2583" height="23.7627" rx="11.8813" fill="white" fill-opacity="0.14"/>
<path d="M413.803 10.4085V11.2031H412.05V10.4085H413.803ZM411.018 8.83425V9.79218C411.018 10.3763 410.951 10.9234 410.818 11.4333C410.689 11.9432 410.489 12.3937 410.216 12.7848C409.944 13.1759 409.602 13.4729 409.191 13.6759L408.575 12.8813C408.941 12.713 409.248 12.468 409.496 12.1462C409.743 11.8244 409.924 11.463 410.038 11.062C410.157 10.6561 410.216 10.2328 410.216 9.79218V8.83425H411.018ZM411.211 8.83425V9.79218C411.211 10.2328 411.266 10.6486 411.375 11.0397C411.484 11.4308 411.654 11.7798 411.887 12.0868C412.125 12.3887 412.424 12.619 412.786 12.7774L412.199 13.5645C411.788 13.3665 411.449 13.0818 411.182 12.7105C410.919 12.3343 410.726 11.8986 410.602 11.4036C410.479 10.9085 410.417 10.3714 410.417 9.79218V8.83425H411.211ZM414.293 8.32187V15.0274H413.313V8.32187H414.293ZM417.39 8.84168V9.79218C417.39 10.3664 417.323 10.9085 417.189 11.4184C417.061 11.9234 416.858 12.3714 416.58 12.7625C416.308 13.1487 415.964 13.4432 415.548 13.6462L414.962 12.8442C415.328 12.6759 415.632 12.4333 415.875 12.1165C416.117 11.7996 416.298 11.4407 416.417 11.0397C416.536 10.6387 416.595 10.2229 416.595 9.79218V8.84168H417.39ZM417.583 8.84168V9.79218C417.583 10.213 417.635 10.614 417.739 10.9952C417.848 11.3764 418.016 11.7204 418.244 12.0274C418.476 12.3293 418.766 12.567 419.113 12.7402L418.518 13.5274C418.127 13.3294 417.803 13.0422 417.546 12.666C417.288 12.2897 417.098 11.8566 416.974 11.3665C416.85 10.8764 416.788 10.3516 416.788 9.79218V8.84168H417.583ZM420.345 8.33672V15.02H419.35V8.33672H420.345ZM421.303 10.8912V11.7155H420.122V10.8912H421.303ZM423.843 8.99762V9.40604C423.843 9.84169 423.774 10.2501 423.635 10.6313C423.501 11.0125 423.293 11.3442 423.011 11.6264C422.734 11.9085 422.385 12.1189 421.964 12.2576L421.467 11.4778C421.823 11.364 422.118 11.1981 422.35 10.9803C422.588 10.7625 422.761 10.5199 422.87 10.2526C422.984 9.98526 423.041 9.70307 423.041 9.40604V8.99762H423.843ZM424.043 8.99762V9.40604C424.043 9.67832 424.095 9.94318 424.199 10.2006C424.308 10.4531 424.474 10.6808 424.697 10.8838C424.92 11.0868 425.204 11.2452 425.551 11.359L425.061 12.1313C424.655 12.0026 424.316 11.8021 424.043 11.5298C423.776 11.2526 423.578 10.9333 423.449 10.5719C423.321 10.2056 423.256 9.81694 423.256 9.40604V8.99762H424.043ZM426.397 9.911V10.713H425.15V9.911H426.397ZM425.336 8.69316V9.47287H421.734V8.69316H425.336ZM427.11 12.5991V15.02H426.115V13.3863H422.543V12.5991H427.11ZM427.11 8.33672V12.3021H426.115V8.33672H427.11ZM433.489 8.33672V13.1264H432.502V8.33672H433.489ZM433.653 14.114V14.9012H429.026V14.114H433.653ZM430.014 12.6511V14.4333H429.026V12.6511H430.014ZM429.843 8.75257C430.185 8.75257 430.494 8.82435 430.771 8.96792C431.049 9.11148 431.267 9.31446 431.425 9.57684C431.588 9.83921 431.67 10.1313 431.67 10.4531C431.67 10.7749 431.588 11.067 431.425 11.3293C431.267 11.5868 431.049 11.7897 430.771 11.9382C430.494 12.0818 430.185 12.1536 429.843 12.1536C429.507 12.1536 429.2 12.0818 428.922 11.9382C428.645 11.7897 428.425 11.5868 428.262 11.3293C428.103 11.067 428.024 10.7749 428.024 10.4531C428.024 10.1313 428.103 9.84169 428.262 9.58426C428.425 9.32188 428.645 9.11891 428.922 8.97534C429.2 8.82683 429.507 8.75257 429.843 8.75257ZM429.843 9.60654C429.68 9.60654 429.534 9.64119 429.405 9.7105C429.276 9.77486 429.175 9.87139 429.101 10.0001C429.026 10.1288 428.989 10.2798 428.989 10.4531C428.989 10.6264 429.026 10.7773 429.101 10.9061C429.175 11.0298 429.276 11.1264 429.405 11.1957C429.534 11.26 429.68 11.2922 429.843 11.2922C430.007 11.2922 430.153 11.26 430.281 11.1957C430.41 11.1264 430.512 11.0298 430.586 10.9061C430.665 10.7773 430.705 10.6264 430.705 10.4531C430.705 10.2798 430.667 10.1288 430.593 10.0001C430.519 9.87139 430.415 9.77486 430.281 9.7105C430.153 9.64119 430.007 9.60654 429.843 9.60654Z" fill="#F5F5F5"/>
<path d="M457.67 5.30505L451.819 15.9379L450.052 14.9987L450.27 10.4578L446.243 17.4643L444.498 16.3019L445.45 11.6753L439.144 19.9731L437.635 18.2362L446.797 6.17747L448.45 7.4277L447.881 10.1893L450.762 5.17834L452.518 6.13091L452.307 10.4933L455.99 3.79903L457.67 5.30505ZM446.845 6.5231L446.845 6.52408L446.845 6.5231ZM444.774 16.1879L444.775 16.1879L444.774 16.1879Z" fill="#E7FF7E"/>
<rect x="475.55" width="74.2583" height="23.7627" rx="11.8813" fill="white" fill-opacity="0.14"/>
<path d="M509.883 9.61707C509.889 9.58741 509.892 9.55478 509.895 9.52067L509.916 9.23445L509.659 9.1159C509.517 9.04921 509.457 9.02254 508.125 9.36256C507.314 9.57044 506.332 9.84361 505.431 10.1153C503.985 10.5503 502.861 10.9362 502.065 11.2686C502.059 11.2686 502.055 11.2716 502.049 11.2731C502.051 11.2671 502.052 11.2612 502.053 11.2568C502.387 10.4603 502.77 9.33461 503.204 7.89007C503.476 6.98834 503.748 6.00653 503.955 5.19528C504.294 3.86199 504.268 3.80268 504.201 3.66034L504.078 3.40086L503.796 3.42616C503.761 3.42914 503.729 3.43211 503.7 3.43805C503.678 3.4173 503.651 3.39951 503.623 3.37876L503.385 3.21719L503.154 3.37891C503.025 3.46941 502.972 3.5065 502.6 4.83091C502.373 5.63623 502.12 6.62396 501.906 7.5405C501.559 9.00875 501.331 10.1759 501.222 11.0316C501.222 11.0375 501.219 11.0435 501.217 11.0479C501.213 11.0435 501.208 11.039 501.205 11.0361C500.682 10.3496 499.9 9.45416 498.866 8.35562C498.221 7.6707 497.508 6.94279 496.908 6.35721C495.924 5.39657 495.858 5.39065 495.703 5.37736L495.416 5.35521L495.296 5.6118C495.282 5.64443 495.268 5.67261 495.258 5.70227C495.23 5.71118 495.2 5.72601 495.169 5.73937L494.911 5.86402L494.936 6.14578C494.95 6.30297 494.956 6.36821 495.917 7.35111C496.501 7.95004 497.231 8.66312 497.916 9.30799C499.015 10.3413 499.911 11.1225 500.598 11.6458C500.602 11.6502 500.606 11.6547 500.609 11.6576C500.604 11.6576 500.598 11.6606 500.593 11.6621C499.736 11.7721 498.571 12.0008 497.102 12.3483C496.185 12.5651 495.198 12.819 494.393 13.0447C493.069 13.4173 493.032 13.4707 492.941 13.5998L492.778 13.8371L492.94 14.0684C492.961 14.0966 492.979 14.1233 492.999 14.1455C492.994 14.1752 492.991 14.2078 492.988 14.2419L492.967 14.5281L493.224 14.6467C493.366 14.7134 493.425 14.74 494.758 14.4C495.569 14.1921 496.551 13.919 497.452 13.6473C498.896 13.2123 500.021 12.8264 500.817 12.4939C500.823 12.4939 500.829 12.491 500.834 12.4895C500.834 12.4954 500.831 12.5014 500.829 12.5058C500.496 13.3023 500.112 14.428 499.678 15.8725C499.407 16.7742 499.135 17.756 498.927 18.5673C498.588 19.9006 498.615 19.9599 498.682 20.1022L498.805 20.3617L499.087 20.3364C499.122 20.3334 499.153 20.3305 499.183 20.3245C499.205 20.3453 499.232 20.3631 499.26 20.3838L499.497 20.5454L499.729 20.3837C499.858 20.2932 499.911 20.2561 500.283 18.9317C500.509 18.1263 500.762 17.1386 500.977 16.2221C501.324 14.7538 501.552 13.5867 501.661 12.7295C501.661 12.7235 501.664 12.7176 501.665 12.7132C501.67 12.7176 501.673 12.7206 501.677 12.725C502.201 13.4115 502.983 14.3069 504.018 15.4055C504.663 16.0904 505.377 16.8183 505.976 17.4039C506.961 18.3645 507.026 18.3704 507.181 18.3837L507.468 18.4059L507.588 18.1493C507.602 18.1167 507.616 18.0885 507.626 18.0588C507.654 18.0499 507.684 18.0351 507.715 18.0202L507.973 17.8956L507.948 17.6138C507.934 17.4566 507.928 17.3914 506.967 16.4085C506.383 15.8096 505.653 15.0965 504.968 14.4516C503.869 13.4183 502.973 12.6371 502.287 12.1138C502.282 12.1094 502.278 12.1049 502.275 12.102C502.281 12.102 502.287 12.099 502.291 12.0975C503.148 11.9875 504.313 11.7573 505.781 11.4113C506.697 11.1945 507.685 10.9406 508.49 10.7149C509.814 10.3423 509.852 10.2889 509.941 10.1598L510.104 9.92249L509.942 9.6912C509.922 9.66155 509.904 9.63634 509.883 9.6141L509.883 9.61707Z" fill="#E7FF7E"/>
<path d="M515.018 10.0744V10.4085C515.018 10.8937 514.952 11.3615 514.818 11.812C514.684 12.2576 514.481 12.6536 514.209 13.0001C513.937 13.3467 513.603 13.6091 513.207 13.7873L512.679 13.0298C513.026 12.8665 513.318 12.6462 513.556 12.3689C513.793 12.0868 513.969 11.7774 514.083 11.4407C514.197 11.0991 514.254 10.7551 514.254 10.4085V10.0744H515.018ZM515.234 10.0744V10.4085C515.234 10.7353 515.288 11.0595 515.397 11.3813C515.506 11.7031 515.672 12.0001 515.895 12.2724C516.122 12.5397 516.405 12.7551 516.741 12.9185L516.214 13.6685C515.833 13.4952 515.511 13.2402 515.249 12.9036C514.991 12.562 514.798 12.1759 514.669 11.7452C514.541 11.3145 514.476 10.8689 514.476 10.4085V10.0744H515.234ZM516.556 9.41347V10.1932H512.902V9.41347H516.556ZM515.234 8.48524V9.81446H514.254V8.48524H515.234ZM518.048 8.33672V15.02H517.053V8.33672H518.048ZM519.006 10.9135V11.7303H517.825V10.9135H519.006ZM524.464 8.32187V15.0051H523.469V8.32187H524.464ZM525.385 10.8689V11.6783H524.212V10.8689H525.385ZM522.682 9.01247C522.682 10.0867 522.449 11.0298 521.984 11.8417C521.524 12.6536 520.761 13.3269 519.697 13.8615L519.14 13.119C519.729 12.817 520.212 12.4779 520.588 12.1016C520.969 11.7204 521.251 11.2922 521.435 10.8169C521.618 10.3367 521.709 9.79218 521.709 9.18327V9.01247H522.682ZM522.222 9.01247V9.80704H519.519V9.01247H522.222ZM531.69 11.5744V12.3467H525.638V11.5744H531.69ZM529.217 12.0793V13.4828H528.207V12.0793H529.217ZM531.029 14.1066V14.9012H526.336V14.1066H531.029ZM527.338 12.8962V14.3071H526.336V12.8962H527.338ZM528.653 8.44811C529.133 8.44811 529.554 8.50504 529.915 8.6189C530.281 8.73277 530.564 8.89613 530.762 9.10901C530.965 9.31693 531.066 9.56198 531.066 9.84417C531.066 10.1214 530.965 10.3664 530.762 10.5793C530.564 10.7872 530.281 10.9481 529.915 11.062C529.554 11.1759 529.135 11.2328 528.66 11.2328C528.18 11.2328 527.757 11.1759 527.39 11.062C527.029 10.9481 526.747 10.7872 526.544 10.5793C526.346 10.3664 526.247 10.1214 526.247 9.84417C526.247 9.56198 526.346 9.31693 526.544 9.10901C526.747 8.90108 527.031 8.74019 527.398 8.62633C527.764 8.50752 528.182 8.44811 528.653 8.44811ZM528.66 9.23525C528.378 9.23525 528.135 9.25752 527.932 9.30208C527.734 9.34663 527.581 9.41594 527.472 9.51C527.368 9.59911 527.316 9.7105 527.316 9.84417C527.316 9.97288 527.37 10.0843 527.479 10.1783C527.588 10.2674 527.742 10.3343 527.94 10.3788C528.138 10.4234 528.378 10.4457 528.66 10.4457C528.937 10.4457 529.175 10.4234 529.373 10.3788C529.576 10.3343 529.732 10.2674 529.841 10.1783C529.95 10.0843 530.004 9.97288 530.004 9.84417C530.004 9.7105 529.95 9.59911 529.841 9.51C529.732 9.41594 529.576 9.34663 529.373 9.30208C529.175 9.25752 528.937 9.23525 528.66 9.23525Z" fill="#F5F5F5"/>
<rect x="554.808" width="74.2583" height="23.7627" rx="11.8813" fill="white" fill-opacity="0.14"/>
<path d="M584.413 3.21729V11.8813H589.363L589.611 12.1284V20.5444L589.363 20.7925H580.947L580.7 20.5444V15.5942H572.036L571.789 15.3462L571.789 3.21729L572.036 2.97021L584.164 2.97021L584.413 3.21729ZM581.195 15.0991H583.917V12.3765H581.195V15.0991ZM575.649 11.7339H580.552V6.83057H575.649V11.7339Z" fill="#E7FF7E"/>
<path d="M597.856 8.3293V15.0348H596.868V8.3293H597.856ZM593.282 12.6214C594.059 12.6214 594.665 12.609 595.101 12.5843C595.537 12.5595 595.965 12.5076 596.386 12.4284L596.467 13.2378C596.047 13.3269 595.611 13.3838 595.16 13.4086C594.71 13.4333 594.086 13.4457 593.289 13.4457H592.71V12.6214H593.282ZM595.94 8.92336V9.71793H593.69V12.9407H592.71V8.92336H595.94ZM601.094 9.39119V10.1189C601.094 10.6486 601.024 11.1561 600.886 11.6412C600.747 12.1264 600.537 12.5546 600.255 12.9259C599.972 13.2972 599.626 13.5769 599.215 13.765L598.658 12.9853C599.019 12.8219 599.324 12.5892 599.571 12.2873C599.819 11.9803 600.002 11.6412 600.121 11.2699C600.245 10.8937 600.307 10.51 600.307 10.1189V9.39119H601.094ZM601.309 9.39119V10.1189C601.309 10.4902 601.369 10.8541 601.487 11.2105C601.611 11.562 601.797 11.8813 602.044 12.1685C602.292 12.4506 602.596 12.666 602.958 12.8145L602.416 13.5942C602 13.416 601.651 13.1511 601.369 12.7996C601.086 12.4482 600.876 12.0422 600.737 11.5818C600.599 11.1214 600.529 10.6338 600.529 10.1189V9.39119H601.309ZM602.683 8.96792V9.78476H598.925V8.96792H602.683ZM604.265 8.33672V15.02H603.277V8.33672H604.265ZM605.965 10.9655C606.673 10.9655 607.215 10.958 607.592 10.9432C607.973 10.9283 608.359 10.8937 608.75 10.8392L608.817 11.6041C608.421 11.6684 608.027 11.708 607.636 11.7229C607.245 11.7378 606.688 11.7452 605.965 11.7452H605.445V10.9655H605.965ZM608.535 8.70059V9.45802H606.433V11.4778H605.445V8.70059H608.535ZM608.334 9.83674V10.5645H606.181V9.83674H608.334ZM609.931 9.73278V10.5125H608.713V9.73278H609.931ZM610.74 8.3293V11.8566H609.752V8.3293H610.74ZM610.74 12.0942V13.8764H607.302V14.7081H606.322V13.1784H609.76V12.8516H606.314V12.0942H610.74ZM610.918 14.2254V14.9754H606.322V14.2254H610.918Z" fill="#F5F5F5"/>
<rect x="634.066" width="74.2583" height="23.7627" rx="11.8813" fill="white" fill-opacity="0.14"/>
<mask id="path-29-outside-1_4508_15262" maskUnits="userSpaceOnUse" x="650.291" y="2.43102" width="19.0061" height="19.0061" fill="black">
<rect fill="white" x="650.291" y="2.43102" width="19.0061" height="19.0061"/>
<path d="M663.751 4.04998L663.409 8.97001L668.303 9.47235L668.621 11.2574L664.199 13.42L666.213 17.9222L664.825 19.0887L660.749 16.3332L657.869 20.3292L656.164 19.7126L656.505 14.7925L651.613 14.2902L651.295 12.5051L655.716 10.3426L653.702 5.84029L655.091 4.67384L659.167 7.42937L662.046 3.43333L663.751 4.04998ZM659.397 8.72226L654.563 5.45525L656.949 10.7895L651.709 13.3517L657.509 13.9475L657.105 19.7777L660.519 15.0403L665.353 18.3073L662.967 12.9741L668.207 10.4109L662.405 9.81505L662.81 3.98485L659.397 8.72226Z"/>
</mask>
<path d="M663.751 4.04998L663.409 8.97001L668.303 9.47235L668.621 11.2574L664.199 13.42L666.213 17.9222L664.825 19.0887L660.749 16.3332L657.869 20.3292L656.164 19.7126L656.505 14.7925L651.613 14.2902L651.295 12.5051L655.716 10.3426L653.702 5.84029L655.091 4.67384L659.167 7.42937L662.046 3.43333L663.751 4.04998ZM659.397 8.72226L654.563 5.45525L656.949 10.7895L651.709 13.3517L657.509 13.9475L657.105 19.7777L660.519 15.0403L665.353 18.3073L662.967 12.9741L668.207 10.4109L662.405 9.81505L662.81 3.98485L659.397 8.72226Z" fill="#E7FF7E"/>
<path d="M663.751 4.04998L663.998 4.06715L663.835 3.8172L663.751 4.04998ZM663.409 8.97001L663.162 8.95283L663.383 9.21624L663.409 8.97001ZM668.303 9.47235L668.547 9.42894L668.329 9.22612L668.303 9.47235ZM668.621 11.2574L668.73 11.4798L668.865 11.214L668.621 11.2574ZM664.199 13.42L664.09 13.1976L663.973 13.521L664.199 13.42ZM666.213 17.9222L666.373 18.1118L666.439 17.8212L666.213 17.9222ZM664.825 19.0887L664.686 19.2938L664.984 19.2782L664.825 19.0887ZM660.749 16.3332L660.888 16.1281L660.548 16.1884L660.749 16.3332ZM657.869 20.3292L657.785 20.562L658.07 20.4739L657.869 20.3292ZM656.164 19.7126L655.917 19.6954L656.08 19.9453L656.164 19.7126ZM656.505 14.7925L656.752 14.8096L656.531 14.5463L656.505 14.7925ZM651.613 14.2902L651.369 14.3336L651.587 14.5364L651.613 14.2902ZM651.295 12.5051L651.186 12.2828L651.051 12.5485L651.295 12.5051ZM655.716 10.3426L655.825 10.5649L655.942 10.2415L655.716 10.3426ZM653.702 5.84029L653.543 5.65073L653.476 5.94137L653.702 5.84029ZM655.091 4.67384L655.23 4.46877L654.932 4.48427L655.091 4.67384ZM659.167 7.42937L659.028 7.63443L659.368 7.57405L659.167 7.42937ZM662.046 3.43333L662.13 3.20056L661.845 3.28865L662.046 3.43333ZM659.397 8.72226L659.258 8.92735L659.598 8.86697L659.397 8.72226ZM654.563 5.45525L654.702 5.25017L654.337 5.55634L654.563 5.45525ZM656.949 10.7895L657.058 11.0118L657.175 10.6884L656.949 10.7895ZM651.709 13.3517L651.6 13.1293L651.684 13.5979L651.709 13.3517ZM657.509 13.9475L657.756 13.9646L657.534 13.7012L657.509 13.9475ZM657.105 19.7777L656.858 19.7606L657.305 19.9224L657.105 19.7777ZM660.519 15.0403L660.658 14.8352L660.318 14.8955L660.519 15.0403ZM665.353 18.3073L665.215 18.5124L665.579 18.2062L665.353 18.3073ZM662.967 12.9741L662.858 12.7517L662.741 13.0752L662.967 12.9741ZM668.207 10.4109L668.316 10.6332L668.232 10.1646L668.207 10.4109ZM662.405 9.81505L662.158 9.79789L662.38 10.0613L662.405 9.81505ZM662.81 3.98485L663.057 4.00202L662.61 3.84014L662.81 3.98485ZM663.751 4.04998L663.504 4.0328L663.162 8.95283L663.409 8.97001L663.656 8.98718L663.998 4.06715L663.751 4.04998ZM663.409 8.97001L663.383 9.21624L668.278 9.71858L668.303 9.47235L668.329 9.22612L663.434 8.72377L663.409 8.97001ZM668.303 9.47235L668.06 9.51576L668.378 11.3008L668.621 11.2574L668.865 11.214L668.547 9.42894L668.303 9.47235ZM668.621 11.2574L668.513 11.035L664.09 13.1976L664.199 13.42L664.308 13.6423L668.73 11.4798L668.621 11.2574ZM664.199 13.42L663.973 13.521L665.987 18.0233L666.213 17.9222L666.439 17.8212L664.425 13.3189L664.199 13.42ZM666.213 17.9222L666.054 17.7327L664.666 18.8992L664.825 19.0887L664.984 19.2782L666.373 18.1118L666.213 17.9222ZM664.825 19.0887L664.964 18.8836L660.888 16.1281L660.749 16.3332L660.61 16.5382L664.686 19.2938L664.825 19.0887ZM660.749 16.3332L660.548 16.1884L657.669 20.1845L657.869 20.3292L658.07 20.4739L660.95 16.4779L660.749 16.3332ZM657.869 20.3292L657.954 20.0964L656.248 19.4798L656.164 19.7126L656.08 19.9453L657.785 20.562L657.869 20.3292ZM656.164 19.7126L656.411 19.7297L656.752 14.8096L656.505 14.7925L656.258 14.7754L655.917 19.6954L656.164 19.7126ZM656.505 14.7925L656.531 14.5463L651.638 14.0439L651.613 14.2902L651.587 14.5364L656.48 15.0388L656.505 14.7925ZM651.613 14.2902L651.856 14.2468L651.538 12.4617L651.295 12.5051L651.051 12.5485L651.369 14.3336L651.613 14.2902ZM651.295 12.5051L651.403 12.7275L655.825 10.5649L655.716 10.3426L655.607 10.1202L651.186 12.2828L651.295 12.5051ZM655.716 10.3426L655.942 10.2415L653.928 5.73921L653.702 5.84029L653.476 5.94137L655.49 10.4437L655.716 10.3426ZM653.702 5.84029L653.861 6.02986L655.25 4.8634L655.091 4.67384L654.932 4.48427L653.543 5.65073L653.702 5.84029ZM655.091 4.67384L654.952 4.8789L659.028 7.63443L659.167 7.42937L659.306 7.2243L655.23 4.46877L655.091 4.67384ZM659.167 7.42937L659.368 7.57405L662.246 3.57801L662.046 3.43333L661.845 3.28865L658.966 7.28469L659.167 7.42937ZM662.046 3.43333L661.961 3.66611L663.667 4.28275L663.751 4.04998L663.835 3.8172L662.13 3.20056L662.046 3.43333ZM659.397 8.72226L659.536 8.51718L654.702 5.25017L654.563 5.45525L654.424 5.66034L659.258 8.92735L659.397 8.72226ZM654.563 5.45525L654.337 5.55634L656.723 10.8905L656.949 10.7895L657.175 10.6884L654.789 5.35417L654.563 5.45525ZM656.949 10.7895L656.841 10.5671L651.6 13.1293L651.709 13.3517L651.818 13.574L657.058 11.0118L656.949 10.7895ZM651.709 13.3517L651.684 13.5979L657.484 14.1937L657.509 13.9475L657.534 13.7012L651.734 13.1054L651.709 13.3517ZM657.509 13.9475L657.262 13.9304L656.858 19.7606L657.105 19.7777L657.352 19.7948L657.756 13.9646L657.509 13.9475ZM657.105 19.7777L657.305 19.9224L660.72 15.185L660.519 15.0403L660.318 14.8955L656.904 19.633L657.105 19.7777ZM660.519 15.0403L660.38 15.2453L665.215 18.5124L665.353 18.3073L665.492 18.1022L660.658 14.8352L660.519 15.0403ZM665.353 18.3073L665.579 18.2062L663.193 12.873L662.967 12.9741L662.741 13.0752L665.127 18.4084L665.353 18.3073ZM662.967 12.9741L663.075 13.1964L668.316 10.6332L668.207 10.4109L668.098 10.1885L662.858 12.7517L662.967 12.9741ZM668.207 10.4109L668.232 10.1646L662.43 9.56882L662.405 9.81505L662.38 10.0613L668.182 10.6571L668.207 10.4109ZM662.405 9.81505L662.652 9.83222L663.057 4.00202L662.81 3.98485L662.564 3.96768L662.158 9.79789L662.405 9.81505ZM662.81 3.98485L662.61 3.84014L659.196 8.57756L659.397 8.72226L659.598 8.86697L663.011 4.12955L662.81 3.98485Z" fill="#E7FF7E" mask="url(#path-29-outside-1_4508_15262)"/>
<path d="M673.602 9.50258V9.7402C673.602 10.1412 673.533 10.515 673.394 10.8615C673.255 11.208 673.045 11.51 672.763 11.7675C672.486 12.0199 672.139 12.2056 671.723 12.3244L671.263 11.5521C671.609 11.458 671.896 11.317 672.124 11.1288C672.357 10.9407 672.528 10.7278 672.637 10.4902C672.745 10.2526 672.8 10.0026 672.8 9.7402V9.50258H673.602ZM673.788 9.50258V9.7402C673.788 9.97783 673.842 10.2056 673.951 10.4234C674.06 10.6412 674.228 10.8368 674.456 11.01C674.689 11.1783 674.981 11.3071 675.332 11.3962L674.887 12.161C674.466 12.0521 674.112 11.8788 673.825 11.6412C673.542 11.4036 673.332 11.1214 673.193 10.7947C673.055 10.4679 672.986 10.1164 672.986 9.7402V9.50258H673.788ZM675.087 9.01247V9.78476H671.493V9.01247H675.087ZM673.788 8.30702V9.32436H672.8V8.30702H673.788ZM676.156 10.1041V10.8986H674.909V10.1041H676.156ZM676.914 8.33672V12.3615H675.926V8.33672H676.914ZM674.649 12.4729C675.357 12.4729 675.914 12.5868 676.32 12.8145C676.731 13.0373 676.936 13.3467 676.936 13.7427C676.936 14.1388 676.731 14.4507 676.32 14.6784C675.914 14.9061 675.357 15.02 674.649 15.02C673.936 15.02 673.374 14.9061 672.963 14.6784C672.552 14.4507 672.347 14.1388 672.347 13.7427C672.347 13.3467 672.552 13.0373 672.963 12.8145C673.374 12.5868 673.936 12.4729 674.649 12.4729ZM674.649 13.2229C674.357 13.2229 674.114 13.2427 673.921 13.2823C673.728 13.3219 673.582 13.3813 673.483 13.4605C673.389 13.5348 673.342 13.6289 673.342 13.7427C673.342 13.8615 673.389 13.9606 673.483 14.0398C673.582 14.114 673.728 14.1709 673.921 14.2106C674.114 14.2502 674.357 14.27 674.649 14.27C674.936 14.27 675.176 14.2502 675.369 14.2106C675.562 14.1709 675.708 14.114 675.807 14.0398C675.906 13.9606 675.956 13.8615 675.956 13.7427C675.956 13.6289 675.906 13.5348 675.807 13.4605C675.708 13.3813 675.562 13.3219 675.369 13.2823C675.176 13.2427 674.936 13.2229 674.649 13.2229ZM683.887 9.2204V10.0224H682.728V9.2204H683.887ZM683.887 10.6239V11.4333H682.728V10.6239H683.887ZM683.003 8.3293V12.3615H682.016V8.3293H683.003ZM678.54 11.2922C679.243 11.2922 679.815 11.2798 680.256 11.2551C680.701 11.2254 681.142 11.1709 681.577 11.0917L681.666 11.8788C681.231 11.963 680.783 12.0199 680.322 12.0496C679.862 12.0744 679.268 12.0868 678.54 12.0868H677.976V11.2922H678.54ZM681.028 8.71544V10.7501H678.956V11.7749H677.976V10.015H680.048V9.51H677.961V8.71544H681.028ZM680.805 12.4729C681.508 12.4729 682.06 12.5843 682.461 12.8071C682.867 13.0298 683.07 13.3417 683.07 13.7427C683.07 14.1437 682.867 14.4556 682.461 14.6784C682.06 14.9061 681.508 15.02 680.805 15.02C680.102 15.02 679.548 14.9061 679.142 14.6784C678.741 14.4556 678.54 14.1437 678.54 13.7427C678.54 13.3417 678.741 13.0298 679.142 12.8071C679.548 12.5843 680.102 12.4729 680.805 12.4729ZM680.805 13.2155C680.518 13.2155 680.278 13.2353 680.085 13.2749C679.892 13.3145 679.746 13.3739 679.647 13.4531C679.553 13.5274 679.506 13.6239 679.506 13.7427C679.506 13.9209 679.614 14.0546 679.832 14.1437C680.05 14.2328 680.374 14.2774 680.805 14.2774C681.241 14.2774 681.565 14.2328 681.778 14.1437C681.996 14.0546 682.105 13.9209 682.105 13.7427C682.105 13.6239 682.055 13.5274 681.956 13.4531C681.862 13.3739 681.718 13.3145 681.525 13.2749C681.332 13.2353 681.092 13.2155 680.805 13.2155ZM689.419 8.33672V13.3269H688.424V8.33672H689.419ZM690.295 10.3565V11.1734H689.144V10.3565H690.295ZM688.083 9.0199V9.79218H684.154V9.0199H688.083ZM686.122 10.0224C686.439 10.0224 686.721 10.0768 686.969 10.1858C687.221 10.2947 687.417 10.4481 687.555 10.6462C687.699 10.8392 687.771 11.062 687.771 11.3145C687.771 11.567 687.699 11.7922 687.555 11.9902C687.417 12.1883 687.221 12.3417 686.969 12.4506C686.721 12.5546 686.439 12.6066 686.122 12.6066C685.805 12.6066 685.521 12.5546 685.268 12.4506C685.021 12.3417 684.825 12.1883 684.682 11.9902C684.543 11.7922 684.474 11.567 684.474 11.3145C684.474 11.062 684.543 10.8392 684.682 10.6462C684.825 10.4481 685.021 10.2947 685.268 10.1858C685.521 10.0768 685.805 10.0224 686.122 10.0224ZM686.122 10.7724C685.909 10.7724 685.738 10.8194 685.61 10.9135C685.486 11.0075 685.424 11.1412 685.424 11.3145C685.424 11.4877 685.486 11.6214 685.61 11.7155C685.738 11.8095 685.909 11.8566 686.122 11.8566C686.33 11.8566 686.496 11.8095 686.62 11.7155C686.748 11.6214 686.813 11.4877 686.813 11.3145C686.813 11.1412 686.748 11.0075 686.62 10.9135C686.496 10.8194 686.33 10.7724 686.122 10.7724ZM686.612 8.32187V9.39119H685.625V8.32187H686.612ZM689.657 14.114V14.9012H685.097V14.114H689.657ZM686.085 12.9482V14.4556H685.097V12.9482H686.085Z" fill="#F5F5F5"/>
<rect x="713.325" width="74.2583" height="23.7627" rx="11.8813" fill="white" fill-opacity="0.14"/>
<path d="M747.88 11.175L747.88 12.5822L739.923 20.5447L738.515 20.5452L730.553 12.5878L730.553 11.1805L738.51 3.21804L739.917 3.21759L747.88 11.175ZM731.256 11.8834L731.257 11.8834L731.256 11.8834ZM736.289 11.8818L739.217 14.8086L742.144 11.88L739.215 8.95414L736.289 11.8818Z" fill="#E7FF7E"/>
<path d="M756.625 12.0199V12.8219H750.573V12.0199H756.625ZM754.078 12.5843V15.0274H753.09V12.5843H754.078ZM756.18 10.6981V11.4778H753.803V10.6981H756.18ZM756.135 8.71544V9.50258H754.791V11.3442H753.803V8.71544H756.135ZM753.439 8.72287V9.50258H752.088V11.2774H751.1V8.72287H753.439ZM751.516 10.6907C751.957 10.6907 752.321 10.6833 752.608 10.6684C752.895 10.6486 753.189 10.609 753.491 10.5496L753.558 11.3368C753.251 11.3962 752.949 11.4358 752.652 11.4556C752.36 11.4704 751.982 11.4778 751.516 11.4778H751.1V10.6907H751.516ZM757.761 11.5224C758.41 11.5224 758.922 11.5125 759.299 11.4927C759.675 11.4729 760.044 11.4308 760.405 11.3665L760.494 12.1462C760.128 12.2155 759.749 12.26 759.358 12.2798C758.972 12.2996 758.44 12.3095 757.761 12.3095H757.249V11.5224H757.761ZM760.182 8.68574V10.8169H758.229V12.0125H757.249V10.0892H759.202V9.47287H757.234V8.68574H760.182ZM762.596 8.3293V12.9482H761.608V8.3293H762.596ZM761.786 9.2501V10.0447H760.561V9.2501H761.786ZM761.786 10.6759V11.463H760.561V10.6759H761.786ZM760.687 12.6066V12.7105C760.687 13.0967 760.588 13.4506 760.39 13.7724C760.192 14.0893 759.898 14.3541 759.507 14.567C759.12 14.7848 758.65 14.9309 758.096 15.0051L757.739 14.2477C758.209 14.1932 758.601 14.0893 758.912 13.9358C759.229 13.7774 759.462 13.5917 759.61 13.3789C759.764 13.166 759.841 12.9432 759.841 12.7105V12.6066H760.687ZM760.828 12.6066V12.7105C760.828 12.9432 760.903 13.166 761.051 13.3789C761.205 13.5868 761.437 13.77 761.749 13.9284C762.066 14.0818 762.46 14.1883 762.93 14.2477L762.573 15.0051C762.019 14.9309 761.546 14.7848 761.155 14.567C760.769 14.3541 760.477 14.0893 760.279 13.7724C760.086 13.4506 759.989 13.0967 759.989 12.7105V12.6066H760.828ZM768.678 8.33672V13.3269H767.683V8.33672H768.678ZM769.554 10.3565V11.1734H768.403V10.3565H769.554ZM767.341 9.0199V9.79218H763.413V9.0199H767.341ZM765.381 10.0224C765.697 10.0224 765.98 10.0768 766.227 10.1858C766.48 10.2947 766.675 10.4481 766.814 10.6462C766.957 10.8392 767.029 11.062 767.029 11.3145C767.029 11.567 766.957 11.7922 766.814 11.9902C766.675 12.1883 766.48 12.3417 766.227 12.4506C765.98 12.5546 765.697 12.6066 765.381 12.6066C765.064 12.6066 764.779 12.5546 764.527 12.4506C764.279 12.3417 764.083 12.1883 763.94 11.9902C763.801 11.7922 763.732 11.567 763.732 11.3145C763.732 11.062 763.801 10.8392 763.94 10.6462C764.083 10.4481 764.279 10.2947 764.527 10.1858C764.779 10.0768 765.064 10.0224 765.381 10.0224ZM765.381 10.7724C765.168 10.7724 764.997 10.8194 764.868 10.9135C764.744 11.0075 764.683 11.1412 764.683 11.3145C764.683 11.4877 764.744 11.6214 764.868 11.7155C764.997 11.8095 765.168 11.8566 765.381 11.8566C765.588 11.8566 765.754 11.8095 765.878 11.7155C766.007 11.6214 766.071 11.4877 766.071 11.3145C766.071 11.1412 766.007 11.0075 765.878 10.9135C765.754 10.8194 765.588 10.7724 765.381 10.7724ZM765.871 8.32187V9.39119H764.883V8.32187H765.871ZM768.915 14.114V14.9012H764.356V14.114H768.915ZM765.343 12.9482V14.4556H764.356V12.9482H765.343Z" fill="#F5F5F5"/>
<rect x="792.583" width="74.2583" height="23.7627" rx="11.8813" fill="white" fill-opacity="0.14"/>
<path d="M818.391 8.96094L824.396 11.1797L824.396 12.5733L818.393 14.7988L816.174 20.8025L814.781 20.8029L812.558 14.8007L806.553 12.579L806.553 11.1854L812.556 8.9628L814.775 2.96014L816.168 2.9597L818.391 8.96094Z" fill="#E7FF7E"/>
<path d="M832.377 8.60405V10.9432H827.832V8.60405H832.377ZM828.805 9.36891V10.1783H831.404V9.36891H828.805ZM833.134 11.4853V12.2576H827.097V11.4853H833.134ZM830.602 10.7575V11.7452H829.607V10.7575H830.602ZM830.097 12.5991C830.825 12.5991 831.394 12.7056 831.805 12.9185C832.216 13.1313 832.421 13.4308 832.421 13.817C832.421 14.2031 832.216 14.5002 831.805 14.7081C831.394 14.921 830.825 15.0274 830.097 15.0274C829.374 15.0274 828.807 14.921 828.396 14.7081C827.985 14.5002 827.78 14.2031 827.78 13.817C827.78 13.4308 827.985 13.1313 828.396 12.9185C828.807 12.7056 829.374 12.5991 830.097 12.5991ZM830.104 13.3417C829.659 13.3417 829.325 13.3813 829.102 13.4605C828.884 13.5398 828.775 13.6586 828.775 13.817C828.775 13.9754 828.884 14.0942 829.102 14.1734C829.325 14.2477 829.659 14.2848 830.104 14.2848C830.55 14.2848 830.881 14.2477 831.099 14.1734C831.317 14.0942 831.426 13.9754 831.426 13.817C831.426 13.6586 831.317 13.5398 831.099 13.4605C830.881 13.3813 830.55 13.3417 830.104 13.3417ZM838.822 8.3293V13.5497H837.835V8.3293H838.822ZM839.654 10.5051V11.3071H838.481V10.5051H839.654ZM839.045 14.114V14.9012H834.345V14.114H839.045ZM835.347 13.2155V14.3442H834.345V13.2155H835.347ZM835.993 11.5298V12.5175H835.005V11.5298H835.993ZM833.424 12.1536C834.186 12.1536 834.914 12.1387 835.607 12.109C836.3 12.0793 836.949 12.0224 837.553 11.9382L837.627 12.614C837.013 12.7279 836.372 12.8046 835.704 12.8442C835.04 12.8789 834.32 12.9011 833.543 12.911L833.424 12.1536ZM837.389 8.85653V9.56198H833.595V8.85653H837.389ZM835.488 9.73278C835.988 9.73278 836.387 9.82684 836.684 10.015C836.981 10.1981 837.129 10.4481 837.129 10.765C837.129 11.0818 836.978 11.3343 836.676 11.5224C836.379 11.7056 835.983 11.7972 835.488 11.7972C834.993 11.7972 834.597 11.7056 834.3 11.5224C834.008 11.3343 833.862 11.0818 833.862 10.765C833.862 10.4481 834.008 10.1981 834.3 10.015C834.597 9.82684 834.993 9.73278 835.488 9.73278ZM835.488 10.3937C835.265 10.3937 835.095 10.4259 834.976 10.4902C834.857 10.5496 834.798 10.6412 834.798 10.765C834.798 10.8887 834.857 10.9828 834.976 11.0471C835.095 11.1066 835.265 11.1363 835.488 11.1363C835.716 11.1363 835.889 11.1066 836.008 11.0471C836.132 10.9828 836.194 10.8887 836.194 10.765C836.194 10.6412 836.132 10.5496 836.008 10.4902C835.889 10.4259 835.716 10.3937 835.488 10.3937ZM835.993 8.29959V9.14614H835.005V8.29959H835.993ZM842.253 8.99762V9.40604C842.253 9.84169 842.184 10.2501 842.045 10.6313C841.912 11.0125 841.704 11.3442 841.422 11.6264C841.144 11.9085 840.795 12.1189 840.375 12.2576L839.877 11.4778C840.233 11.364 840.528 11.1981 840.761 10.9803C840.998 10.7625 841.172 10.5199 841.28 10.2526C841.394 9.98526 841.451 9.70307 841.451 9.40604V8.99762H842.253ZM842.454 8.99762V9.40604C842.454 9.67832 842.506 9.94318 842.61 10.2006C842.719 10.4531 842.884 10.6808 843.107 10.8838C843.33 11.0868 843.615 11.2452 843.961 11.359L843.471 12.1313C843.065 12.0026 842.726 11.8021 842.454 11.5298C842.186 11.2526 841.988 10.9333 841.86 10.5719C841.731 10.2056 841.667 9.81694 841.667 9.40604V8.99762H842.454ZM844.808 9.911V10.713H843.56V9.911H844.808ZM843.746 8.69316V9.47287H840.144V8.69316H843.746ZM845.521 12.5991V15.02H844.526V13.3863H840.954V12.5991H845.521ZM845.521 8.33672V12.3021H844.526V8.33672H845.521ZM851.9 8.33672V13.1264H850.912V8.33672H851.9ZM852.063 14.114V14.9012H847.437V14.114H852.063ZM848.424 12.6511V14.4333H847.437V12.6511H848.424ZM848.254 8.75257C848.595 8.75257 848.905 8.82435 849.182 8.96792C849.459 9.11148 849.677 9.31446 849.835 9.57684C849.999 9.83921 850.08 10.1313 850.08 10.4531C850.08 10.7749 849.999 11.067 849.835 11.3293C849.677 11.5868 849.459 11.7897 849.182 11.9382C848.905 12.0818 848.595 12.1536 848.254 12.1536C847.917 12.1536 847.61 12.0818 847.333 11.9382C847.055 11.7897 846.835 11.5868 846.672 11.3293C846.513 11.067 846.434 10.7749 846.434 10.4531C846.434 10.1313 846.513 9.84169 846.672 9.58426C846.835 9.32188 847.055 9.11891 847.333 8.97534C847.61 8.82683 847.917 8.75257 848.254 8.75257ZM848.254 9.60654C848.09 9.60654 847.944 9.64119 847.815 9.7105C847.687 9.77486 847.585 9.87139 847.511 10.0001C847.437 10.1288 847.4 10.2798 847.4 10.4531C847.4 10.6264 847.437 10.7773 847.511 10.9061C847.585 11.0298 847.687 11.1264 847.815 11.1957C847.944 11.26 848.09 11.2922 848.254 11.2922C848.417 11.2922 848.563 11.26 848.692 11.1957C848.82 11.1264 848.922 11.0298 848.996 10.9061C849.075 10.7773 849.115 10.6264 849.115 10.4531C849.115 10.2798 849.078 10.1288 849.004 10.0001C848.929 9.87139 848.825 9.77486 848.692 9.7105C848.563 9.64119 848.417 9.60654 848.254 9.60654Z" fill="#F5F5F5"/>
<rect x="871.841" width="74.2583" height="23.7627" rx="11.8813" fill="white" fill-opacity="0.14"/>
<path d="M899.638 4.73555L898.537 9.09244L905.999 4.86863L907.314 7.28494L900.089 10.9889L903.789 12.07L902.927 14.65L897.703 12.6966L896.385 19.6254L893.581 18.9693L895.069 13.5828L889.477 16.7584L888.151 14.3274L893.678 11.6603L890.502 10.8162L891.413 8.11613L895.867 9.74695L896.96 4.13793L899.638 4.73555ZM895.245 17.9964L895.321 18.0144L895.501 17.0684L895.245 17.9964ZM889.998 14.9117L890.007 14.9279L890.245 14.7925L889.998 14.9117ZM892.229 9.90248L892.967 10.0985L892.251 9.83659L892.229 9.90248ZM904.725 7.11783L905.484 6.72915L905.467 6.69799L904.725 7.11783Z" fill="#E7FF7E"/>
<path d="M915.4 8.31444V15.0274H914.405V8.31444H915.4ZM916.172 10.8169V11.6264H914.999V10.8169H916.172ZM910.484 12.5769C910.791 12.5769 911.046 12.5719 911.249 12.562C911.457 12.5472 911.672 12.5199 911.895 12.4803L911.969 13.2823C911.731 13.3269 911.506 13.3566 911.293 13.3714C911.08 13.3863 910.811 13.3937 910.484 13.3937H910.15V12.5769H910.484ZM911.858 8.99762V9.77733H911.123V12.9482H910.15V8.99762H911.858ZM912.556 12.5769C912.981 12.5769 913.293 12.5719 913.491 12.562C913.694 12.5472 913.89 12.515 914.078 12.4655L914.16 13.2675C913.952 13.3219 913.744 13.3566 913.536 13.3714C913.328 13.3863 913.001 13.3937 912.556 13.3937H912.207V12.5769H912.556ZM914.004 8.99762V9.77733H913.179V12.9704H912.207V8.99762H914.004ZM919.759 8.70801V9.18327C919.759 9.67337 919.648 10.1338 919.425 10.5645C919.207 10.9902 918.888 11.3541 918.467 11.6561C918.051 11.9581 917.558 12.1635 916.989 12.2724L916.566 11.4481C917.056 11.3689 917.477 11.2105 917.828 10.9729C918.185 10.7353 918.452 10.4605 918.63 10.1486C918.808 9.83179 918.898 9.51 918.898 9.18327V8.70801H919.759ZM919.952 8.70801V9.18327C919.952 9.5199 920.041 9.84664 920.219 10.1635C920.398 10.4754 920.662 10.7476 921.014 10.9803C921.365 11.213 921.789 11.3689 922.284 11.4481L921.86 12.2724C921.286 12.1585 920.791 11.9531 920.375 11.6561C919.959 11.359 919.643 10.9976 919.425 10.5719C919.207 10.1412 919.098 9.67832 919.098 9.18327V8.70801H919.952ZM922.484 13.3937V14.2031H916.432V13.3937H922.484ZM928.113 8.33672V13.3269H927.118V8.33672H928.113ZM928.989 10.3565V11.1734H927.838V10.3565H928.989ZM926.777 9.0199V9.79218H922.848V9.0199H926.777ZM924.816 10.0224C925.133 10.0224 925.415 10.0768 925.663 10.1858C925.915 10.2947 926.111 10.4481 926.249 10.6462C926.393 10.8392 926.465 11.062 926.465 11.3145C926.465 11.567 926.393 11.7922 926.249 11.9902C926.111 12.1883 925.915 12.3417 925.663 12.4506C925.415 12.5546 925.133 12.6066 924.816 12.6066C924.499 12.6066 924.215 12.5546 923.962 12.4506C923.715 12.3417 923.519 12.1883 923.376 11.9902C923.237 11.7922 923.168 11.567 923.168 11.3145C923.168 11.062 923.237 10.8392 923.376 10.6462C923.519 10.4481 923.715 10.2947 923.962 10.1858C924.215 10.0768 924.499 10.0224 924.816 10.0224ZM924.816 10.7724C924.603 10.7724 924.432 10.8194 924.304 10.9135C924.18 11.0075 924.118 11.1412 924.118 11.3145C924.118 11.4877 924.18 11.6214 924.304 11.7155C924.432 11.8095 924.603 11.8566 924.816 11.8566C925.024 11.8566 925.19 11.8095 925.314 11.7155C925.442 11.6214 925.507 11.4877 925.507 11.3145C925.507 11.1412 925.442 11.0075 925.314 10.9135C925.19 10.8194 925.024 10.7724 924.816 10.7724ZM925.306 8.32187V9.39119H924.319V8.32187H925.306ZM928.351 14.114V14.9012H923.791V14.114H928.351ZM924.779 12.9482V14.4556H923.791V12.9482H924.779Z" fill="#F5F5F5"/>
</svg>
