<svg width="50" height="50" viewBox="0 0 50 50" fill="none" xmlns="http://www.w3.org/2000/svg">
<path d="M6.14331 48.6365C5.62618 48.6158 5.21026 48.204 5.1845 47.6871L4.78999 39.77L3.60001 14.11L3.04549 1.06966C3.02088 0.491079 3.49136 0.0126295 4.07028 0.0275094L36.07 0.85L46.9663 1.16834C47.5501 1.1854 47.9951 1.69709 47.931 2.27766L44.53 33.08L42.7427 49.0805C42.6847 49.5995 42.2372 49.9865 41.7153 49.969L27.74 49.5L6.14331 48.6365Z" fill="black"/>
<path d="M12.8865 26.7864C12.8865 26.7864 11.3547 32.2293 15.6923 35.0367C20.0299 37.8441 25.7949 39.0276 31.6642 36.3922C36.7746 34.094 38.8703 26.463 35.0062 22.2037C32.0332 18.9284 27.1386 17.8618 22.8567 18.3228C17.8507 18.8595 14.2093 22.0592 12.8795 26.7864H12.8865Z" fill="white"/>
<path d="M16.883 30.7083C16.883 30.7083 16.3886 30.9216 16.3956 31.362C16.4025 31.8024 16.6114 32.229 17.1127 32.4492C17.5513 32.6419 18.2406 32.3322 18.366 31.8437C18.4634 31.4652 18.2963 31.1005 18.0387 30.8528C17.7393 30.5707 17.3077 30.5225 16.883 30.7083Z" fill="#030000"/>
<path d="M20.8167 32.9241C20.8167 32.9241 20.5034 33.0617 20.5104 33.3369C20.5173 33.6122 20.6427 33.8805 20.9629 34.0182C21.2414 34.1351 21.6731 33.9425 21.7566 33.6397C21.8193 33.4058 21.7149 33.1718 21.5547 33.0135C21.3668 32.8346 21.0952 32.8071 20.8237 32.9241H20.8167Z" fill="#030000"/>
<path d="M20.4756 30.1927C20.4756 30.1927 20.0717 30.3716 20.0787 30.7294C20.0857 31.0872 20.2597 31.4451 20.6705 31.6308C21.0326 31.7891 21.5965 31.5414 21.701 31.1354C21.7775 30.8258 21.6383 30.5161 21.4294 30.3166C21.1857 30.0826 20.8306 30.0413 20.4756 30.1927Z" fill="#030000"/>
<path d="M34.7304 11.248C34.7304 11.248 34.6577 12.9969 33.874 14.7616C32.67 17.4687 29.2926 18.4828 26.7231 16.9576C26.7231 16.9576 27.4827 14.7776 29.2037 13.3802C31.6762 11.3758 34.7304 11.256 34.7304 11.256V11.248Z" fill="white"/>
<path d="M24.3868 20.4553L24.8262 19.404C24.8262 19.404 24.8779 19.3695 24.8952 19.404L25.3346 20.4553C25.5242 20.9119 25.8861 21.2739 26.3428 21.4634L27.3941 21.9029C27.3941 21.9029 27.4285 21.9546 27.3941 21.9718L26.3428 22.4113C25.8861 22.6009 25.5242 22.9628 25.3346 23.4195L24.8952 24.4707C24.8952 24.4707 24.8435 24.5052 24.8262 24.4707L24.3868 23.4195C24.1972 22.9628 23.8353 22.6009 23.3786 22.4113L22.3273 21.9718C22.3273 21.9718 22.2929 21.9201 22.3273 21.9029L23.3786 21.4634C23.8353 21.2739 24.1972 20.9119 24.3868 20.4553Z" fill="#030000"/>
</svg>
