<svg width="74" height="64" viewBox="0 0 74 64" fill="none" xmlns="http://www.w3.org/2000/svg">
<path d="M41.3391 2.59723L39.071 20.6093L66.9116 0.000103442L73.3758 9.0417L46.2287 27.45L61.5961 29.9642L59.4079 40.7339L37.5006 35.4721L35.6234 63.9045L24.0569 62.6537L27.3726 40.3222L6.51613 55.8079L-2.79598e-05 46.7126L20.8515 33.2976L7.69854 31.4762L10.0243 20.2007L28.6872 24.5479L30.3074 1.51881L41.3391 2.59723ZM30.2513 57.9333L30.5665 57.9681L30.8228 54.0859L30.2513 57.9333ZM7.69464 48.1465L7.73752 48.2071L8.62641 47.5468L7.69464 48.1465ZM14.1742 26.9623L17.2292 27.3851L14.2309 26.6871L14.1742 26.9623ZM62.9133 9.64571L65.7631 7.71389L65.6799 7.5973L62.9133 9.64571Z" fill="#E7FF7E"/>
</svg>
