<svg width="24" height="24" viewBox="0 0 24 24" fill="none" xmlns="http://www.w3.org/2000/svg">
<mask id="mask0_962_9589" style="mask-type:alpha" maskUnits="userSpaceOnUse" x="0" y="0" width="24" height="24">
<rect width="24" height="24" fill="#D9D9D9"/>
</mask>
<g mask="url(#mask0_962_9589)">
<path d="M12.5 15.7368C12.6566 15.7368 12.7878 15.6839 12.8938 15.5779C12.9997 15.472 13.0527 15.3407 13.0527 15.1842C13.0527 15.0276 12.9997 14.8963 12.8938 14.7904C12.7878 14.6846 12.6566 14.6317 12.5 14.6317C12.3434 14.6317 12.2122 14.6846 12.1062 14.7904C12.0003 14.8963 11.9473 15.0276 11.9473 15.1842C11.9473 15.3407 12.0003 15.472 12.1062 15.5779C12.2122 15.6839 12.3434 15.7368 12.5 15.7368ZM12.5002 13.2369C12.6457 13.2369 12.7675 13.1877 12.8657 13.0893C12.964 12.991 13.0132 12.8691 13.0132 12.7237V9.64479C13.0132 9.4994 12.964 9.37749 12.8655 9.27908C12.7671 9.18078 12.6452 9.13163 12.4998 9.13163C12.3543 9.13163 12.2325 9.18078 12.1343 9.27908C12.036 9.37749 11.9868 9.4994 11.9868 9.64479V12.7237C11.9868 12.8691 12.036 12.991 12.1345 13.0893C12.2329 13.1877 12.3548 13.2369 12.5002 13.2369ZM12.5012 19C11.6021 19 10.7571 18.8294 9.96603 18.4882C9.17496 18.147 8.48688 17.684 7.90176 17.0991C7.31665 16.5142 6.85338 15.8264 6.51196 15.0357C6.17065 14.245 6 13.4001 6 12.5012C6 11.6021 6.1706 10.7571 6.51179 9.96603C6.85298 9.17496 7.31602 8.48688 7.90091 7.90176C8.48579 7.31665 9.1736 6.85338 9.96432 6.51196C10.755 6.17065 11.5999 6 12.4988 6C13.3979 6 14.2429 6.1706 15.034 6.51179C15.825 6.85298 16.5131 7.31602 17.0982 7.90091C17.6834 8.48579 18.1466 9.1736 18.488 9.96432C18.8293 10.755 19 11.5999 19 12.4988C19 13.3979 18.8294 14.2429 18.4882 15.034C18.147 15.825 17.684 16.5131 17.0991 17.0982C16.5142 17.6834 15.8264 18.1466 15.0357 18.488C14.245 18.8293 13.4001 19 12.5012 19Z" fill="#FE4E39"/>
<path d="M12.8937 15.5779C12.7878 15.6838 12.6565 15.7368 12.4999 15.7368C12.3434 15.7368 12.2121 15.6838 12.1062 15.5779C12.0002 15.4719 11.9473 15.3407 11.9473 15.1841C11.9473 15.0275 12.0002 14.8963 12.1062 14.7904C12.2121 14.6845 12.3434 14.6316 12.4999 14.6316C12.6565 14.6316 12.7878 14.6845 12.8937 14.7904C12.9996 14.8963 13.0526 15.0275 13.0526 15.1841C13.0526 15.3407 12.9996 15.4719 12.8937 15.5779Z" fill="white"/>
<path d="M12.8656 13.0892C12.7675 13.1876 12.6456 13.2369 12.5001 13.2369C12.3547 13.2369 12.2328 13.1876 12.1344 13.0892C12.036 12.9909 11.9868 12.8691 11.9868 12.7237V9.64475C11.9868 9.49935 12.0359 9.37745 12.1342 9.27904C12.2324 9.18074 12.3543 9.13159 12.4998 9.13159C12.6452 9.13159 12.7671 9.18074 12.8655 9.27904C12.9639 9.37745 13.0131 9.49935 13.0131 9.64475V12.7237C13.0131 12.8691 12.9639 12.9909 12.8656 13.0892Z" fill="white"/>
</g>
</svg>
