<svg width="50" height="50" viewBox="0 0 50 50" fill="none" xmlns="http://www.w3.org/2000/svg">
<path d="M46.9 13.06L43.2808 45.3792C43.228 45.8512 42.8505 46.2209 42.3775 46.2638L2.3505 49.9009C1.7649 49.9541 1.26001 49.493 1.26001 48.905V1.11224C1.26001 0.518021 1.77511 0.054897 2.36598 0.117869L46.8012 4.85355C47.3521 4.91226 47.7503 5.4077 47.6891 5.95835L46.9 13.06Z" fill="black"/>
<path d="M24.0839 30.6497C23.9485 30.7132 23.7918 30.7127 23.6568 30.6484L13.8171 25.9628C13.8006 25.9549 13.79 25.9382 13.79 25.9199V31.0341C13.79 31.227 13.901 31.4027 14.0753 31.4856L20.16 34.3799L23.6574 36.0391C23.7921 36.1029 23.9482 36.1034 24.0833 36.0404L27.64 34.3799L33.612 31.5847C33.7878 31.5025 33.9 31.3259 33.9 31.1319V26.0399C33.9 26.046 33.8965 26.0516 33.891 26.0542L24.0839 30.6497Z" fill="white"/>
<path d="M33.9 19.9605L26.36 16.4505L23.9609 15.3291C23.8272 15.2666 23.6727 15.2663 23.5388 15.3284L21.12 16.4505L13.79 19.8505L10.1863 21.5222C9.80213 21.7004 9.79969 22.2457 10.1823 22.4274L13.79 24.1405L23.6569 28.8292C23.7918 28.8933 23.9483 28.8937 24.0836 28.8304L33.9 24.2305L37.5007 22.5443C37.885 22.3644 37.8846 21.8176 37.4999 21.6383L33.9 19.9605Z" fill="white"/>
<path d="M8.26007 25.3393L8.77008 24.1193C8.77008 24.1193 8.83008 24.0793 8.85008 24.1193L9.36008 25.3393C9.58008 25.8693 10.0001 26.2893 10.5301 26.5093L11.7501 27.0193C11.7501 27.0193 11.7901 27.0793 11.7501 27.0993L10.5301 27.6093C10.0001 27.8293 9.58008 28.2493 9.36008 28.7793L8.85008 29.9993C8.85008 29.9993 8.79008 30.0393 8.77008 29.9993L8.26007 28.7793C8.04007 28.2493 7.62007 27.8293 7.09007 27.6093L5.87007 27.0993C5.87007 27.0993 5.83007 27.0393 5.87007 27.0193L7.09007 26.5093C7.62007 26.2893 8.04007 25.8693 8.26007 25.3393Z" fill="white"/>
</svg>
