<svg width="50" height="50" viewBox="0 0 50 50" fill="none" xmlns="http://www.w3.org/2000/svg">
<path d="M48.5072 13.06L45.8657 46.3278C45.8263 46.8228 45.4297 47.2141 44.9341 47.2465L3.9325 49.9303C3.35575 49.968 2.86719 49.5104 2.86719 48.9324V1.11224C2.86719 0.518021 3.38229 0.054897 3.97316 0.117869L48.4084 4.85355C48.9593 4.91226 49.3575 5.4077 49.2963 5.95835L48.5072 13.06Z" fill="black"/>
<path d="M34.5589 36.2748H13.0413C12.4294 36.2748 11.9471 35.7483 12.0047 35.1435L13.646 18.5948C13.6964 18.0683 14.1427 17.6699 14.6827 17.6699H32.9175C33.4503 17.6699 33.9038 18.0683 33.9542 18.5948L35.5955 35.1435C35.6531 35.7483 35.178 36.2748 34.5589 36.2748Z" fill="white"/>
<path d="M23.6727 33.733C27.1672 33.733 30 30.9333 30 27.4798C30 24.0262 27.1672 21.2266 23.6727 21.2266C20.1783 21.2266 17.3455 24.0262 17.3455 27.4798C17.3455 30.9333 20.1783 33.733 23.6727 33.733Z" fill="#030000"/>
<path d="M23.6552 31.5117C25.9079 31.5117 27.7342 29.7069 27.7342 27.4805C27.7342 25.2541 25.9079 23.4492 23.6552 23.4492C21.4024 23.4492 19.5762 25.2541 19.5762 27.4805C19.5762 29.7069 21.4024 31.5117 23.6552 31.5117Z" fill="white"/>
<path d="M30.5999 18.2734H24.4001C24.1309 18.2734 23.936 18.0509 24.0195 17.8361L24.9477 15.5036C25.0034 15.3655 25.1519 15.2734 25.3282 15.2734H29.6718C29.8481 15.2734 29.9966 15.3655 30.0523 15.5036L30.9805 17.8361C31.064 18.0509 30.8691 18.2734 30.5999 18.2734Z" fill="white"/>
<path d="M36.4421 13.5289L36.9594 12.2915C36.9594 12.2915 37.0203 12.2509 37.0406 12.2915L37.5579 13.5289C37.781 14.0664 38.207 14.4924 38.7446 14.7156L39.982 15.2329C39.982 15.2329 40.0225 15.2937 39.982 15.314L38.7446 15.8313C38.207 16.0544 37.781 16.4804 37.5579 17.018L37.0406 18.2554C37.0406 18.2554 36.9797 18.296 36.9594 18.2554L36.4421 17.018C36.219 16.4804 35.793 16.0544 35.2554 15.8313L34.018 15.314C34.018 15.314 33.9775 15.2532 34.018 15.2329L35.2554 14.7156C35.793 14.4924 36.219 14.0664 36.4421 13.5289Z" fill="white"/>
</svg>
