<svg width="50" height="50" viewBox="0 0 50 50" fill="none" xmlns="http://www.w3.org/2000/svg">
<path d="M48.5072 13.06L45.8657 46.3278C45.8263 46.8228 45.4297 47.2141 44.9341 47.2465L3.9325 49.9303C3.35575 49.968 2.86719 49.5104 2.86719 48.9324V1.11224C2.86719 0.518021 3.38229 0.054897 3.97316 0.117869L48.4084 4.85355C48.9593 4.91226 49.3575 5.4077 49.2963 5.95835L48.5072 13.06Z" fill="black"/>
<path d="M36.387 23.049V19.3137C36.387 19.1573 36.3138 19.0099 36.1892 18.9154L30.5459 14.6345C30.2807 14.4333 29.8966 14.5426 29.7771 14.8533L23.8723 30.204C23.7521 30.5166 23.3634 30.6253 23.0749 30.4553C21.8178 29.7143 20.1144 29.3618 18.2991 29.582C14.8255 30.0035 12.2599 32.3598 12.5686 34.8447C12.8775 37.3295 15.943 39.0024 19.4163 38.5811C21.7044 38.3034 23.5983 37.1856 24.5364 35.7451L24.5931 35.6533C24.8677 35.2086 25.0001 34.7744 25.1302 34.2471L30.7346 19.5859C30.8606 19.2561 31.2795 19.1573 31.5396 19.396L33.8897 21.5522C33.9792 21.6344 34.0358 21.7463 34.0488 21.8671L34.3765 24.9109C34.3967 25.0985 34.5208 25.2588 34.6973 25.3253L40.0065 27.3262C40.2963 27.4355 40.6147 27.2576 40.6737 26.9536L40.9221 25.6733C40.9676 25.4392 40.8413 25.2055 40.6205 25.1152L36.6978 23.5118C36.5098 23.435 36.387 23.2521 36.387 23.049Z" fill="white"/>
<path d="M20.6697 13.1643L21.441 11.3148C21.4646 11.2597 21.5433 11.2597 21.559 11.3148L22.3303 13.1643C22.6609 13.9671 23.3063 14.6047 24.1091 14.9431L25.9587 15.7144C26.0138 15.738 26.0138 15.8167 25.9587 15.8325L24.1091 16.6038C23.3063 16.9343 22.6688 17.5797 22.3303 18.3825L21.559 20.2321C21.5354 20.2872 21.4567 20.2872 21.441 20.2321L20.6697 18.3825C20.3391 17.5797 19.6937 16.9422 18.8909 16.6038L17.0413 15.8325C16.9862 15.8089 16.9862 15.7301 17.0413 15.7144L18.8909 14.9431C19.6937 14.6125 20.3312 13.9671 20.6697 13.1643Z" fill="white"/>
</svg>
