<svg width="40" height="24" viewBox="0 0 40 24" fill="none" xmlns="http://www.w3.org/2000/svg">
<mask id="mask0_4496_5112" style="mask-type:alpha" maskUnits="userSpaceOnUse" x="0" y="0" width="24" height="24">
<rect width="24" height="24" fill="#D9D9D9"/>
</mask>
<g mask="url(#mask0_4496_5112)">
<path d="M13.5239 12.5027L8.20508 7.20721C8.06481 7.06755 7.99649 6.90129 8.00014 6.70844C8.00379 6.51558 8.07575 6.34927 8.21603 6.20949C8.3563 6.06983 8.5233 6 8.717 6C8.91071 6 9.07776 6.06983 9.21815 6.20949L14.6238 11.6023C14.7514 11.7294 14.846 11.8718 14.9075 12.0295C14.9692 12.1872 15 12.345 15 12.5027C15 12.6604 14.9692 12.8181 14.9075 12.9758C14.846 13.1335 14.7514 13.2759 14.6238 13.403L9.20721 18.7958C9.06693 18.9355 8.90176 19.0035 8.7117 18.9999C8.52153 18.9962 8.3563 18.9246 8.21603 18.7849C8.07575 18.6453 8.00561 18.479 8.00561 18.2862C8.00561 18.0933 8.07575 17.927 8.21603 17.7872L13.5239 12.5027Z" fill="black"/>
</g>
<g opacity="0.5">
<mask id="mask1_4496_5112" style="mask-type:alpha" maskUnits="userSpaceOnUse" x="8" y="0" width="24" height="24">
<rect x="8" width="24" height="24" fill="#D9D9D9"/>
</mask>
<g mask="url(#mask1_4496_5112)">
<path d="M21.5239 12.5027L16.2051 7.20721C16.0648 7.06755 15.9965 6.90129 16.0001 6.70844C16.0038 6.51558 16.0757 6.34927 16.216 6.20949C16.3563 6.06983 16.5233 6 16.717 6C16.9107 6 17.0778 6.06983 17.2182 6.20949L22.6238 11.6023C22.7514 11.7294 22.846 11.8718 22.9075 12.0295C22.9692 12.1872 23 12.345 23 12.5027C23 12.6604 22.9692 12.8181 22.9075 12.9758C22.846 13.1335 22.7514 13.2759 22.6238 13.403L17.2072 18.7958C17.0669 18.9355 16.9018 19.0035 16.7117 18.9999C16.5215 18.9962 16.3563 18.9246 16.216 18.7849C16.0757 18.6453 16.0056 18.479 16.0056 18.2862C16.0056 18.0933 16.0757 17.927 16.216 17.7872L21.5239 12.5027Z" fill="black"/>
</g>
</g>
<g opacity="0.2">
<mask id="mask2_4496_5112" style="mask-type:alpha" maskUnits="userSpaceOnUse" x="16" y="0" width="24" height="24">
<rect x="16" width="24" height="24" fill="#D9D9D9"/>
</mask>
<g mask="url(#mask2_4496_5112)">
<path d="M29.5239 12.5027L24.2051 7.20721C24.0648 7.06755 23.9965 6.90129 24.0001 6.70844C24.0038 6.51558 24.0757 6.34927 24.216 6.20949C24.3563 6.06983 24.5233 6 24.717 6C24.9107 6 25.0778 6.06983 25.2182 6.20949L30.6238 11.6023C30.7514 11.7294 30.846 11.8718 30.9075 12.0295C30.9692 12.1872 31 12.345 31 12.5027C31 12.6604 30.9692 12.8181 30.9075 12.9758C30.846 13.1335 30.7514 13.2759 30.6238 13.403L25.2072 18.7958C25.0669 18.9355 24.9018 19.0035 24.7117 18.9999C24.5215 18.9962 24.3563 18.9246 24.216 18.7849C24.0757 18.6453 24.0056 18.479 24.0056 18.2862C24.0056 18.0933 24.0757 17.927 24.216 17.7872L29.5239 12.5027Z" fill="black"/>
</g>
</g>
</svg>
