<svg width="50" height="50" viewBox="0 0 50 50" fill="none" xmlns="http://www.w3.org/2000/svg">
<path d="M6.04652 48.6183C5.78795 48.6079 5.57999 48.402 5.56711 48.1435L5.14986 39.77L3.95986 14.11L3.38261 0.534832C3.3703 0.24554 3.60554 0.00631472 3.895 0.0137547L36.4299 0.85L47.868 1.18417C48.1599 1.1927 48.3824 1.44855 48.3504 1.73883L44.8899 33.08L43.0512 49.5403C43.0222 49.7998 42.7985 49.9932 42.5375 49.9845L28.0999 49.5L6.04652 48.6183Z" fill="black"/>
<path d="M29.5567 23.2702C29.4424 23.2702 29.3315 23.231 29.2425 23.1592L25.2234 19.9133C25.0404 19.7655 24.7793 19.7652 24.596 19.9125L20.5672 23.15C20.4784 23.2213 20.3679 23.2602 20.254 23.2602H13.25C12.9739 23.2602 12.75 23.4841 12.75 23.7602V36.4502C12.75 36.7263 12.9739 36.9502 13.25 36.9502H36.57C36.8461 36.9502 37.07 36.7263 37.07 36.4502V23.7702C37.07 23.4941 36.8461 23.2702 36.57 23.2702H29.5567ZM19.02 34.8702C19.02 35.1463 18.7961 35.3702 18.52 35.3702H14.81C14.5339 35.3702 14.31 35.1463 14.31 34.8702V31.1602C14.31 30.8841 14.5339 30.6602 14.81 30.6602H18.52C18.7961 30.6602 19.02 30.8841 19.02 31.1602V34.8702ZM19.02 28.7802C19.02 29.0563 18.7961 29.2802 18.52 29.2802H14.81C14.5339 29.2802 14.31 29.0563 14.31 28.7802V25.0702C14.31 24.7941 14.5339 24.5702 14.81 24.5702H18.52C18.7961 24.5702 19.02 24.7941 19.02 25.0702V28.7802ZM27.16 35.3702H23.17C22.8939 35.3702 22.67 35.1463 22.67 34.8702V31.9002C22.67 30.5302 23.68 29.4202 24.92 29.4202C26.16 29.4202 27.17 30.5302 27.17 31.9002V35.3602C27.17 35.3657 27.1655 35.3702 27.16 35.3702ZM28.51 25.0302L27.01 25.6502C26.36 25.9202 25.84 26.4402 25.57 27.0902L24.9918 28.4891C24.9648 28.5543 24.8816 28.6533 24.85 28.5902L24.23 27.0902C23.96 26.4402 23.44 25.9202 22.79 25.6502L21.3911 25.072C21.3259 25.045 21.2269 24.9617 21.29 24.9302L22.79 24.3102C23.44 24.0402 23.96 23.5202 24.23 22.8702L24.8082 21.4713C24.8352 21.4061 24.9184 21.3071 24.95 21.3702L25.57 22.8702C25.84 23.5202 26.36 24.0402 27.01 24.3102L28.4089 24.8884C28.4741 24.9154 28.5731 24.9986 28.51 25.0302ZM35.5 34.8702C35.5 35.1463 35.2761 35.3702 35 35.3702H31.29C31.0139 35.3702 30.79 35.1463 30.79 34.8702V31.1602C30.79 30.8841 31.0139 30.6602 31.29 30.6602H35C35.2761 30.6602 35.5 30.8841 35.5 31.1602V34.8702ZM35.5 28.7802C35.5 29.0563 35.2761 29.2802 35 29.2802H31.29C31.0139 29.2802 30.79 29.0563 30.79 28.7802V25.0702C30.79 24.7941 31.0139 24.5702 31.29 24.5702H35C35.2761 24.5702 35.5 24.7941 35.5 25.0702V28.7802Z" fill="white"/>
<path d="M29.4661 16.5303C29.3522 16.5301 29.2418 16.491 29.1531 16.4196L25.2235 13.2526C25.0405 13.1051 24.7796 13.105 24.5964 13.2522L20.657 16.4199C20.5684 16.4912 20.4581 16.5301 20.3444 16.5303L14.4685 16.5396C14.2954 16.5398 14.1348 16.6296 14.0438 16.7769L11.3209 21.1873C11.1153 21.5205 11.3549 21.95 11.7464 21.95H11.8001H19.8819C19.9971 21.95 20.1089 21.9102 20.1981 21.8373L24.5935 18.2485C24.7777 18.0981 25.0424 18.0982 25.2264 18.2488L29.612 21.837C29.7013 21.9101 29.8132 21.95 29.9286 21.95H38.0201H38.0724C38.4642 21.95 38.7037 21.5199 38.4975 21.1868L35.7664 16.7763C35.6754 16.6294 35.515 16.5398 35.3421 16.5396L29.4661 16.5303Z" fill="white"/>
</svg>
