<svg width="70" height="71" viewBox="0 0 70 71" fill="none" xmlns="http://www.w3.org/2000/svg">
<path d="M69.1614 42.71L56.6226 38.4201L69.8673 38.1535L69.7999 31.1888L56.5492 31.2046L68.9935 26.6548L66.6594 20.0933L54.1334 24.4102L64.4285 16.0654L60.0942 10.6118L49.6495 18.762L56.6778 7.53114L50.8066 3.78225L43.5695 14.8844L46.5701 1.9716L39.7969 0.334013L36.5627 13.1822L35.2044 -0.000386217L28.2702 0.644267L29.3789 13.8537L23.8187 1.82313L17.4668 4.69066L22.8018 16.8166L13.6444 7.24596L8.56257 12.0148L17.5473 21.7548L5.77413 15.6815L2.52181 21.8414L14.1879 28.1364L1.07405 26.213L1.1346e-05 33.0903L13.0708 35.2601L0.0430885 37.6986L1.26257 44.5549L14.3311 42.3654L2.80536 48.8974L6.18211 54.9865L17.8306 48.6713L9.04675 58.5909L14.219 63.2549L23.1857 53.5001L18.0997 65.7396L24.511 68.47L29.8184 56.3307L28.9818 69.5501L35.9336 70.0555L37.0082 56.8517L40.5147 69.6302L47.2508 67.8518L43.9848 55.0051L51.4489 65.9537L57.2397 62.0829L49.9778 50.9983L60.5918 58.9311L64.8178 53.3904L54.3471 45.2619L66.9644 49.3175L69.1614 42.71Z" fill="#E7FF7E"/>
</svg>
