<svg width="50" height="50" viewBox="0 0 50 50" fill="none" xmlns="http://www.w3.org/2000/svg">
<path d="M48.64 13.06L46.0668 46.6288C46.0285 47.1278 45.6273 47.5217 45.1277 47.5507L4.05804 49.9385C3.48391 49.9719 3 49.5153 3 48.9402V1.11224C3 0.518021 3.5151 0.054897 4.10597 0.117869L48.5412 4.85355C49.0921 4.91226 49.4903 5.4077 49.4291 5.95835L48.64 13.06Z" fill="black"/>
<path d="M14.93 25.4494L15.83 23.2794C15.86 23.2194 15.95 23.2194 15.97 23.2794L16.87 25.4494C17.26 26.3894 18.01 27.1394 18.95 27.5294L21.12 28.4294C21.18 28.4594 21.18 28.5494 21.12 28.5694L18.95 29.4694C18.01 29.8594 17.26 30.6094 16.87 31.5494L15.97 33.7194C15.94 33.7794 15.85 33.7794 15.83 33.7194L14.93 31.5494C14.54 30.6094 13.79 29.8594 12.85 29.4694L10.68 28.5694C10.62 28.5394 10.62 28.4494 10.68 28.4294L12.85 27.5294C13.79 27.1394 14.54 26.3894 14.93 25.4494Z" fill="white"/>
<path d="M20.75 15.4111L21.39 13.8811C21.39 13.8811 21.47 13.8411 21.49 13.8811L22.13 15.4111C22.41 16.0811 22.94 16.6111 23.6 16.8811L25.13 17.5211C25.13 17.5211 25.17 17.6011 25.13 17.6211L23.6 18.2611C22.93 18.5411 22.4 19.0711 22.13 19.7311L21.49 21.2611C21.49 21.2611 21.41 21.3011 21.39 21.2611L20.75 19.7311C20.47 19.0611 19.94 18.5311 19.28 18.2611L17.75 17.6211C17.75 17.6211 17.71 17.5411 17.75 17.5211L19.28 16.8811C19.95 16.6011 20.48 16.0711 20.75 15.4111Z" fill="white"/>
<path d="M27.8199 19.1607L29.5299 15.0607C29.5799 14.9407 29.7499 14.9407 29.7999 15.0607L31.5099 19.1607C32.2499 20.9407 33.6699 22.3607 35.4499 23.1007L39.5499 24.8107C39.6699 24.8607 39.6699 25.0307 39.5499 25.0807L35.4499 26.7907C33.6699 27.5307 32.2499 28.9507 31.5099 30.7307L29.7999 34.8307C29.7499 34.9507 29.5799 34.9507 29.5299 34.8307L27.8199 30.7307C27.0799 28.9507 25.6599 27.5307 23.8799 26.7907L19.7799 25.0807C19.6599 25.0307 19.6599 24.8607 19.7799 24.8107L23.8799 23.1007C25.6599 22.3607 27.0799 20.9407 27.8199 19.1607Z" fill="white"/>
</svg>
