<svg width="50" height="50" viewBox="0 0 50 50" fill="none" xmlns="http://www.w3.org/2000/svg">
<path d="M5.28345 48.6365C4.76631 48.6158 4.3504 48.204 4.32464 47.6871L3.93013 39.77L2.74014 14.11L2.18562 1.06966C2.16102 0.491079 2.6315 0.0126295 3.21041 0.0275094L35.2101 0.85L46.1064 1.16834C46.6902 1.1854 47.1353 1.69709 47.0712 2.27766L43.6702 33.08L41.8828 49.0805C41.8249 49.5995 41.3774 49.9865 40.8555 49.969L26.8801 49.5L5.28345 48.6365Z" fill="black"/>
<path d="M28.4014 18.8736C28.3383 18.8455 28.2751 18.825 28.2139 18.8059C28.1173 18.7757 28.0105 18.7914 27.9289 18.8513L25.9677 20.2902C25.7615 20.4415 25.8257 20.7701 26.0692 20.848C29.5827 21.971 32.7117 25.4059 32.7117 29.2157C32.7117 33.9202 28.8877 37.7574 24.17 37.7574C19.4523 37.7574 15.6282 33.9334 15.6282 29.2157C15.6282 25.3918 18.4499 21.863 21.9559 20.7556C22.1927 20.6807 22.2643 20.3673 22.0727 20.2093L20.3992 18.8295C20.3329 18.7748 20.2434 18.7544 20.1619 18.7816C15.9699 20.398 13 24.4586 13 29.2025C13 35.3658 18.0068 40.3725 24.17 40.3725C30.3332 40.3725 35.34 35.3658 35.34 29.2025C35.34 24.5374 32.4752 20.5425 28.4014 18.8736Z" fill="white"/>
<path d="M31.3714 15.2854L31.7656 14.3261C31.7656 14.3261 31.8181 14.2999 31.8313 14.3261L32.2255 15.2854C32.3964 15.706 32.7249 16.0345 33.1454 16.2053L34.1047 16.5996C34.1047 16.5996 34.131 16.6521 34.1047 16.6653L33.1454 17.0595C32.7249 17.2303 32.3964 17.5589 32.2255 17.9794L31.8313 18.9387C31.8313 18.9387 31.7787 18.965 31.7656 18.9387L31.3714 17.9794C31.2005 17.5589 30.872 17.2303 30.4515 17.0595L29.4921 16.6653C29.4921 16.6653 29.4659 16.6127 29.4921 16.5996L30.4515 16.2053C30.872 16.0345 31.2005 15.706 31.3714 15.2854Z" fill="white"/>
<path d="M16.7964 10.1608L17.2695 9.01752C17.2695 9.01752 17.3352 8.9781 17.3483 9.01752L17.8214 10.1608C18.0317 10.6602 18.4259 11.0544 18.9252 11.2647L20.0685 11.7377C20.0685 11.7377 20.1079 11.8034 20.0685 11.8166L18.9252 12.2897C18.4259 12.4999 18.0317 12.8942 17.8214 13.3935L17.3483 14.5368C17.3483 14.5368 17.2826 14.5762 17.2695 14.5368L16.7964 13.3935C16.5861 12.8942 16.1919 12.4999 15.6925 12.2897L14.5493 11.8166C14.5493 11.8166 14.5098 11.7509 14.5493 11.7377L15.6925 11.2647C16.1919 11.0544 16.5861 10.6602 16.7964 10.1608Z" fill="white"/>
<path d="M27.3632 17.0017C27.3632 16.9998 27.3607 16.999 27.3597 17.0006C26.6074 18.1391 25.4742 19.0869 24.3349 19.8552C24.2351 19.9225 24.1048 19.9223 24.0052 19.8548C22.8497 19.0714 21.6899 18.0969 20.9372 16.9427C20.7138 16.5485 20.5298 16.1674 20.4509 15.7338C20.267 14.7482 20.8058 13.802 21.7125 13.4603C22.4657 13.1765 23.3004 13.3642 23.8628 13.948C24.0216 14.1128 24.3181 14.1127 24.4764 13.9476C25.0361 13.3641 25.8634 13.1766 26.6273 13.4603C27.5472 13.802 28.0728 14.7482 27.8888 15.7338C27.8104 16.1915 27.6147 16.5972 27.3667 17.0027C27.3657 17.0043 27.3632 17.0036 27.3632 17.0017Z" fill="white"/>
</svg>
