<svg width="48" height="48" viewBox="0 0 48 48" fill="none" xmlns="http://www.w3.org/2000/svg">
<rect width="48" height="48" rx="24" fill="black"/>
<path d="M18 25C17.45 25 17 25.45 17 26C17 26.55 17.45 27 18 27C18.55 27 19 26.55 19 26C19 25.45 18.55 25 18 25ZM18 29C17.45 29 17 29.45 17 30C17 30.55 17.45 31 18 31C18.55 31 19 30.55 19 30C19 29.45 18.55 29 18 29ZM18 21C17.45 21 17 21.45 17 22C17 22.55 17.45 23 18 23C18.55 23 19 22.55 19 22C19 21.45 18.55 21 18 21ZM15 21.5C14.72 21.5 14.5 21.72 14.5 22C14.5 22.28 14.72 22.5 15 22.5C15.28 22.5 15.5 22.28 15.5 22C15.5 21.72 15.28 21.5 15 21.5ZM18 17C17.45 17 17 17.45 17 18C17 18.55 17.45 19 18 19C18.55 19 19 18.55 19 18C19 17.45 18.55 17 18 17ZM33 22.5C33.28 22.5 33.5 22.28 33.5 22C33.5 21.72 33.28 21.5 33 21.5C32.72 21.5 32.5 21.72 32.5 22C32.5 22.28 32.72 22.5 33 22.5ZM26 19C26.55 19 27 18.55 27 18C27 17.45 26.55 17 26 17C25.45 17 25 17.45 25 18C25 18.55 25.45 19 26 19ZM26 15.5C26.28 15.5 26.5 15.28 26.5 15C26.5 14.72 26.28 14.5 26 14.5C25.72 14.5 25.5 14.72 25.5 15C25.5 15.28 25.72 15.5 26 15.5ZM15 25.5C14.72 25.5 14.5 25.72 14.5 26C14.5 26.28 14.72 26.5 15 26.5C15.28 26.5 15.5 26.28 15.5 26C15.5 25.72 15.28 25.5 15 25.5ZM22 32.5C21.72 32.5 21.5 32.72 21.5 33C21.5 33.28 21.72 33.5 22 33.5C22.28 33.5 22.5 33.28 22.5 33C22.5 32.72 22.28 32.5 22 32.5ZM22 15.5C22.28 15.5 22.5 15.28 22.5 15C22.5 14.72 22.28 14.5 22 14.5C21.72 14.5 21.5 14.72 21.5 15C21.5 15.28 21.72 15.5 22 15.5ZM22 19C22.55 19 23 18.55 23 18C23 17.45 22.55 17 22 17C21.45 17 21 17.45 21 18C21 18.55 21.45 19 22 19ZM22 24.5C21.17 24.5 20.5 25.17 20.5 26C20.5 26.83 21.17 27.5 22 27.5C22.83 27.5 23.5 26.83 23.5 26C23.5 25.17 22.83 24.5 22 24.5ZM30 25C29.45 25 29 25.45 29 26C29 26.55 29.45 27 30 27C30.55 27 31 26.55 31 26C31 25.45 30.55 25 30 25ZM30 29C29.45 29 29 29.45 29 30C29 30.55 29.45 31 30 31C30.55 31 31 30.55 31 30C31 29.45 30.55 29 30 29ZM30 21C29.45 21 29 21.45 29 22C29 22.55 29.45 23 30 23C30.55 23 31 22.55 31 22C31 21.45 30.55 21 30 21ZM30 17C29.45 17 29 17.45 29 18C29 18.55 29.45 19 30 19C30.55 19 31 18.55 31 18C31 17.45 30.55 17 30 17ZM33 25.5C32.72 25.5 32.5 25.72 32.5 26C32.5 26.28 32.72 26.5 33 26.5C33.28 26.5 33.5 26.28 33.5 26C33.5 25.72 33.28 25.5 33 25.5ZM26 29C25.45 29 25 29.45 25 30C25 30.55 25.45 31 26 31C26.55 31 27 30.55 27 30C27 29.45 26.55 29 26 29ZM26 32.5C25.72 32.5 25.5 32.72 25.5 33C25.5 33.28 25.72 33.5 26 33.5C26.28 33.5 26.5 33.28 26.5 33C26.5 32.72 26.28 32.5 26 32.5ZM22 20.5C21.17 20.5 20.5 21.17 20.5 22C20.5 22.83 21.17 23.5 22 23.5C22.83 23.5 23.5 22.83 23.5 22C23.5 21.17 22.83 20.5 22 20.5ZM22 29C21.45 29 21 29.45 21 30C21 30.55 21.45 31 22 31C22.55 31 23 30.55 23 30C23 29.45 22.55 29 22 29ZM26 24.5C25.17 24.5 24.5 25.17 24.5 26C24.5 26.83 25.17 27.5 26 27.5C26.83 27.5 27.5 26.83 27.5 26C27.5 25.17 26.83 24.5 26 24.5ZM26 20.5C25.17 20.5 24.5 21.17 24.5 22C24.5 22.83 25.17 23.5 26 23.5C26.83 23.5 27.5 22.83 27.5 22C27.5 21.17 26.83 20.5 26 20.5Z" fill="#E7FF7E"/>
</svg>
