<svg width="24" height="24" viewBox="0 0 24 24" fill="none" xmlns="http://www.w3.org/2000/svg">
<mask id="mask0_962_9772" style="mask-type:alpha" maskUnits="userSpaceOnUse" x="0" y="0" width="24" height="24">
<rect width="24" height="24" fill="#D9D9D9"/>
</mask>
<g mask="url(#mask0_962_9772)">
<path d="M11.0289 12.9685L9.43951 11.3789C9.34475 11.2842 9.22564 11.2358 9.08218 11.2335C8.93884 11.2313 8.81757 11.2798 8.71836 11.3789C8.61926 11.4781 8.56971 11.5983 8.56971 11.7395C8.56971 11.8806 8.61926 12.0008 8.71836 12.1001L10.596 13.9777C10.7197 14.1013 10.864 14.1631 11.0289 14.1631C11.1938 14.1631 11.3381 14.1013 11.4619 13.9777L15.2685 10.1711C15.3631 10.0763 15.4116 9.95722 15.4139 9.81376C15.416 9.67042 15.3676 9.54915 15.2685 9.44993C15.1693 9.35084 15.0491 9.30129 14.9079 9.30129C14.7667 9.30129 14.6465 9.35084 14.5473 9.44993L11.0289 12.9685ZM12.0012 18C11.1021 18 10.2571 17.8294 9.46603 17.4882C8.67496 17.147 7.98688 16.684 7.40176 16.0991C6.81665 15.5142 6.35338 14.8264 6.01196 14.0357C5.67065 13.245 5.5 12.4001 5.5 11.5012C5.5 10.6021 5.6706 9.75709 6.01179 8.96603C6.35298 8.17496 6.81602 7.48688 7.40091 6.90176C7.98579 6.31665 8.6736 5.85338 9.46432 5.51196C10.255 5.17065 11.0999 5 11.9988 5C12.8979 5 13.7429 5.1706 14.534 5.51179C15.325 5.85298 16.0131 6.31602 16.5982 6.90091C17.1834 7.48579 17.6466 8.1736 17.988 8.96432C18.3293 9.75504 18.5 10.5999 18.5 11.4988C18.5 12.3979 18.3294 13.2429 17.9882 14.034C17.647 14.825 17.184 15.5131 16.5991 16.0982C16.0142 16.6834 15.3264 17.1466 14.5357 17.488C13.745 17.8293 12.9001 18 12.0012 18Z" fill="#05AC4B"/>
<path d="M9.43951 11.3789L11.0289 12.9685L14.5473 9.44993C14.6465 9.35084 14.7667 9.30129 14.9079 9.30129C15.0491 9.30129 15.1693 9.35084 15.2685 9.44993C15.3676 9.54915 15.416 9.67042 15.4139 9.81376C15.4116 9.95722 15.3631 10.0763 15.2685 10.1711L11.4619 13.9777C11.3381 14.1013 11.1938 14.1631 11.0289 14.1631C10.864 14.1631 10.7197 14.1013 10.596 13.9777L8.71836 12.1001C8.61926 12.0008 8.56971 11.8806 8.56971 11.7395C8.56971 11.5983 8.61926 11.4781 8.71836 11.3789C8.81757 11.2798 8.93884 11.2313 9.08218 11.2335C9.22564 11.2358 9.34475 11.2842 9.43951 11.3789Z" fill="white"/>
</g>
</svg>
