<svg viewBox="0 0 85 15" fill="none" xmlns="http://www.w3.org/2000/svg">
  <path d="M81.3351 6.00622C81.2105 6.00622 81.1095 5.90522 81.1095 5.78062V4.01138C81.1095 3.88678 81.0085 3.78578 80.884 3.78578H79.6516C79.5271 3.78578 79.4261 3.68477 79.4261 3.56017V0.479524C79.4261 0.354927 79.5271 0.253921 79.6516 0.253921H84.5041C84.6287 0.253921 84.7297 0.354927 84.7297 0.479524V3.26419C84.7297 4.76933 83.4484 6.00622 81.8693 6.00622H81.3351Z" fill="currentColor"/>
  <path d="M69.0898 12.1738C68.9652 12.1738 68.8643 12.0728 68.8643 11.9482V3.15998C68.8643 3.03538 68.9652 2.93437 69.0898 2.93437H78.6053C78.7298 2.93437 78.8308 3.03538 78.8308 3.15998V11.9482C78.8308 12.0728 78.7298 12.1738 78.6053 12.1738H74.9297C74.8051 12.1738 74.7042 12.0728 74.7042 11.9482V7.15174C74.7042 6.65996 74.3466 6.2874 73.855 6.2874C73.3634 6.2874 72.9909 6.65996 72.9909 7.15174V11.9482C72.9909 12.0728 72.89 12.1738 72.7654 12.1738H69.0898Z" fill="currentColor"/>
  <path d="M66.1351 4.73895C64.839 4.73895 63.7663 3.68088 63.7663 2.38438C63.7663 1.07297 64.839 0 66.1351 0C67.4312 0 68.4889 1.07297 68.4889 2.38438C68.4889 3.68088 67.4312 4.73895 66.1351 4.73895ZM64.2153 12.1752C64.0908 12.1752 63.9897 12.0742 63.9897 11.9496V5.3222C63.9897 5.19761 64.0908 5.0966 64.2153 5.0966H68.0399C68.1644 5.0966 68.2654 5.19761 68.2654 5.3222V11.9496C68.2654 12.0742 68.1644 12.1752 68.0399 12.1752H64.2153Z" fill="currentColor"/>
  <path d="M58.6081 2.93437C61.3493 2.93437 63.5392 5.0058 63.5392 7.5392C63.5392 10.1471 61.3493 12.1738 58.6081 12.1738H57.8951C57.7705 12.1738 57.6696 12.2748 57.6696 12.3994V14.6306C57.6696 14.7552 57.5686 14.8562 57.444 14.8562H53.7684C53.6439 14.8562 53.5429 14.7552 53.5429 14.6306V3.15998C53.5429 3.03538 53.6439 2.93437 53.7684 2.93437H58.6081ZM58.2953 6.40662C57.6696 6.40662 57.1481 6.9133 57.1481 7.5541C57.1481 8.18 57.6696 8.68668 58.2953 8.68668C58.921 8.68668 59.4275 8.18 59.4275 7.5541C59.4275 6.9133 58.921 6.40662 58.2953 6.40662Z" fill="currentColor"/>
  <path d="M48.1618 2.93437C50.903 2.93437 53.0929 5.0058 53.0929 7.5392C53.0929 10.1471 50.903 12.1738 48.1618 12.1738H47.4488C47.3242 12.1738 47.2232 12.2748 47.2232 12.3994V14.6306C47.2232 14.7552 47.1223 14.8562 46.9977 14.8562H43.3221C43.1975 14.8562 43.0966 14.7552 43.0966 14.6306V3.15998C43.0966 3.03538 43.1975 2.93437 43.3221 2.93437H48.1618ZM47.8489 6.40662C47.2232 6.40662 46.7018 6.9133 46.7018 7.5541C46.7018 8.18 47.2232 8.68668 47.8489 8.68668C48.4746 8.68668 48.9812 8.18 48.9812 7.5541C48.9812 6.9133 48.4746 6.40662 47.8489 6.40662Z" fill="currentColor"/>
  <path d="M22.4173 12.1738C22.2927 12.1738 22.1918 12.0728 22.1918 11.9482V3.15998C22.1918 3.03538 22.2927 2.93437 22.4173 2.93437H31.9328C32.0573 2.93437 32.1583 3.03538 32.1583 3.15998V11.9482C32.1583 12.0728 32.0573 12.1738 31.9328 12.1738H28.2572C28.1326 12.1738 28.0317 12.0728 28.0317 11.9482V7.15174C28.0317 6.65996 27.6741 6.2874 27.1825 6.2874C26.6909 6.2874 26.3184 6.65996 26.3184 7.15174V11.9482C26.3184 12.0728 26.2175 12.1738 26.0929 12.1738H22.4173Z" fill="currentColor"/>
  <path d="M13.2631 12.1758C13.1385 12.1758 13.0376 12.0748 13.0376 11.9502V8.37776C13.0376 8.25317 13.1385 8.15216 13.2631 8.15216H15.0982C15.2463 8.15216 15.3542 8.01185 15.3162 7.86869L14.5571 5.00777C13.8271 2.25084 15.1828 0.253921 17.7452 0.253921H21.4824C21.607 0.253921 21.708 0.354927 21.708 0.479524V4.05195C21.708 4.17655 21.607 4.27755 21.4824 4.27755H19.8405C19.6926 4.27755 19.5847 4.41759 19.6224 4.56067L20.4119 7.55607C21.1121 10.2236 19.7564 12.1758 17.194 12.1758H13.2631Z" fill="currentColor"/>
  <path fill-rule="evenodd" clip-rule="evenodd" d="M38.8493 2.93459C40.404 2.93464 41.9066 4.18114 42.3605 5.67677C42.4022 5.81417 42.295 5.94674 42.1514 5.94674H40.2978C40.1733 5.94674 40.0723 6.04775 40.0723 6.17234V7.32371C40.0723 7.44831 40.1733 7.54931 40.2978 7.54931H42.2737C42.3982 7.54931 42.4992 7.65032 42.4992 7.77491V11.9483C42.4992 12.0729 42.3982 12.1739 42.2737 12.1739H32.937C32.8124 12.1739 32.7115 12.0729 32.7115 11.9483V5.32105C32.7115 5.19645 32.8124 5.09544 32.937 5.09544H35.7634C35.888 5.09544 35.989 4.99444 35.989 4.86984V3.1602C35.989 3.0356 36.0899 2.93459 36.2145 2.93459H38.8493ZM37.5979 7.27127C37.002 7.27127 36.5103 7.74801 36.5103 8.35897C36.5103 8.95506 37.0019 9.43212 37.5979 9.43212C38.1937 9.4321 38.6705 8.95504 38.6705 8.35897C38.6704 7.74803 38.1937 7.2713 37.5979 7.27127Z" fill="currentColor"/>
  <path d="M4.66227 4.418C4.66227 4.59284 4.804 4.73457 4.97884 4.73457H6.87958C7.05442 4.73457 7.19615 4.87631 7.19615 5.05114V6.5016C7.19615 6.67644 7.33789 6.81817 7.51273 6.81817H10.91C11.0848 6.81817 11.2266 6.67644 11.2266 6.5016V0.57049C11.2266 0.395654 11.0848 0.253921 10.91 0.253921H7.79136C6.07376 0.253921 4.66227 1.83967 4.66227 3.79419V4.418Z" fill="currentColor"/>
  <path d="M6.56429 8.08064C6.56429 7.9058 6.42256 7.76407 6.24772 7.76407H4.34698C4.17214 7.76407 4.03041 7.62234 4.03041 7.4475V5.99704C4.03041 5.82221 3.88867 5.68047 3.71384 5.68047H0.31657C0.141733 5.68047 -7.64237e-09 5.82221 0 5.99704V11.9282C7.64237e-09 12.103 0.141733 12.2447 0.31657 12.2447H3.4352C5.1528 12.2447 6.56429 10.659 6.56429 8.70445V8.08064Z" fill="currentColor"/>
</svg>